<?xml version="1.0" encoding="UTF-8"?>
<!-- Generator: visioncortex VTracer -->
<svg id="svg" version="1.1" xmlns="http://www.w3.org/2000/svg" style="display: block;" viewBox="0 0 3368 1416"><path d="M0 0 C1.0712915 -0.00563965 2.14258301 -0.0112793 3.24633789 -0.01708984 C19.73351871 0.13548543 33.3604762 4.86008223 45.37109375 16.33984375 C57.51775164 29.03757874 59.86950158 43.16138555 59.5625 60 C59.00316989 73.36798969 51.2733574 84.92950446 41.5859375 93.84375 C40.3029178 94.95752029 39.01329001 96.06370349 37.71875 97.1640625 C34.49168133 99.97242922 31.37491727 102.89145345 28.25 105.8125 C23.9429261 109.83069861 19.61307688 113.80373863 15.15625 117.65625 C8.56219224 123.3855133 2.14414023 129.31610577 -4.28808594 135.22558594 C-7.42595143 138.10615048 -10.57986695 140.96750881 -13.75 143.8125 C-22.32136603 151.51848773 -30.7993545 159.1988025 -38.7890625 167.51171875 C-40.75 169.3125 -40.75 169.3125 -42.75 169.3125 C-43.018125 169.951875 -43.28625 170.59125 -43.5625 171.25 C-44.75 173.3125 -44.75 173.3125 -47.75 174.3125 C-48.02714844 174.87839844 -48.30429688 175.44429687 -48.58984375 176.02734375 C-50.22028482 179.23881859 -52.73734619 181.42059389 -55.3125 183.875 C-60.09150218 188.53463434 -64.39081944 193.37693095 -68.546875 198.609375 C-70.80939532 201.3853751 -73.18667989 204.00265573 -75.625 206.625 C-80.84349694 212.30986493 -85.58243622 218.28633976 -90.27734375 224.40283203 C-91.78708 226.36058352 -93.3140426 228.30391848 -94.84375 230.24609375 C-103.4237652 241.2076241 -111.21225179 252.61400044 -118.75 264.3125 C-119.2965625 265.15796387 -119.843125 266.00342773 -120.40625 266.87451172 C-133.85037512 287.7880441 -145.37927544 309.72979242 -155.75 332.3125 C-152.12721614 328.73574062 -148.628261 325.06506743 -145.1875 321.3125 C-144.13027681 320.16269745 -143.07298305 319.01295978 -142.015625 317.86328125 C-141.47744141 317.27756348 -140.93925781 316.6918457 -140.38476562 316.08837891 C-138.77585796 314.34059002 -137.16229016 312.59724307 -135.546875 310.85546875 C-129.10150484 303.90469228 -129.10150484 303.90469228 -122.8125 296.8125 C-115.91700136 288.87932923 -115.91700136 288.87932923 -112.5625 287.25 C-110.17469435 286.01492811 -109.91389103 284.70874623 -108.75 282.3125 C-105.44928293 278.86752082 -101.96847051 275.64384098 -98.4375 272.4375 C-94.21912631 268.59831346 -90.04813861 264.71398099 -85.9050293 260.79370117 C-78.59969669 253.88899774 -71.14048581 247.23220049 -63.45458984 240.75537109 C-61.74884128 239.31151918 -60.05436452 237.8555219 -58.36328125 236.39453125 C-46.41107148 226.07069259 -34.31242839 215.88913995 -21.75 206.3125 C-20.22197282 205.13632119 -18.69397718 203.96010119 -17.16650391 202.78320312 C-15.48453787 201.48809421 -13.80096459 200.19509692 -12.1171875 198.90234375 C-9.97197935 197.25440591 -7.83224884 195.60012793 -5.6953125 193.94140625 C6.8834776 184.19524445 19.64645512 174.67535791 32.78515625 165.6953125 C35.43616369 163.88191979 38.06269218 162.03632109 40.68359375 160.1796875 C53.33287642 151.22949495 66.21350979 142.6871658 79.25 134.3125 C80.21325195 133.6927832 81.17650391 133.07306641 82.16894531 132.43457031 C92.85563086 125.56789824 103.58737849 118.80281308 114.52294922 112.33935547 C116.25241851 111.31106202 117.97297189 110.26927271 119.69140625 109.22265625 C129.2711859 103.39887222 139.01584954 97.88245524 148.7890625 92.390625 C151.96172501 90.60715638 155.12733936 88.81429834 158.2734375 86.984375 C164.64479234 83.28111613 171.0772515 79.82989994 177.68652344 76.5793457 C182.53178153 74.19142318 187.32019898 71.7102469 192.09619141 69.18676758 C216.31393815 56.40783797 241.01448902 44.91575009 266.25 34.3125 C267.63058594 33.72927979 267.63058594 33.72927979 269.0390625 33.13427734 C310.30422123 15.79939739 355.8222089 0.22369989 401 0 C402.0712915 -0.00563965 403.14258301 -0.0112793 404.24633789 -0.01708984 C420.73351871 0.13548543 434.3604762 4.86008223 446.37109375 16.33984375 C458.03290546 28.53073576 461.79877236 44.0744911 461.671875 60.59692383 C461.18775006 73.54567349 454.03721585 84.22523288 445.25 93.3125 C443.4424013 94.97583026 441.59041328 96.57314871 439.71875 98.1640625 C436.49168133 100.97242922 433.37491727 103.89145345 430.25 106.8125 C425.9429261 110.83069861 421.61307688 114.80373863 417.15625 118.65625 C410.56219224 124.3855133 404.14414023 130.31610577 397.71191406 136.22558594 C394.57404857 139.10615048 391.42013305 141.96750881 388.25 144.8125 C379.67863397 152.51848773 371.2006455 160.1988025 363.2109375 168.51171875 C361.25 170.3125 361.25 170.3125 359.25 170.3125 C358.8478125 171.2715625 358.8478125 171.2715625 358.4375 172.25 C357.25 174.3125 357.25 174.3125 354.25 175.3125 C353.83427734 176.16134766 353.83427734 176.16134766 353.41015625 177.02734375 C351.77971518 180.23881859 349.26265381 182.42059389 346.6875 184.875 C341.90849782 189.53463434 337.60918056 194.37693095 333.453125 199.609375 C331.19060468 202.3853751 328.81332011 205.00265573 326.375 207.625 C321.15650306 213.30986493 316.41756378 219.28633976 311.72265625 225.40283203 C310.21292 227.36058352 308.6859574 229.30391848 307.15625 231.24609375 C298.5762348 242.2076241 290.78774821 253.61400044 283.25 265.3125 C282.7034375 266.15796387 282.156875 267.00342773 281.59375 267.87451172 C253.35718729 311.79899645 232.86609557 359.64209631 217.25 409.3125 C217.03666016 409.98837158 216.82332031 410.66424316 216.60351562 411.3605957 C196.21493735 476.02174081 184.25 543.40879922 184.25 611.3125 C185.42521871 611.30973462 186.60043741 611.30696924 187.81126881 611.30412006 C215.73756239 611.23908165 243.66385005 611.18964602 271.59020354 611.15930401 C275.03092033 611.1555521 278.47163696 611.15166911 281.91235352 611.14770508 C282.5973095 611.14691815 283.28226548 611.14613122 283.98797771 611.14532044 C295.06419774 611.13228296 306.14037085 611.10863831 317.21656308 611.08104161 C328.59019027 611.05294116 339.96378277 611.03653836 351.33744687 611.03023452 C357.72231375 611.02632761 364.10707434 611.01716136 370.49190712 610.99530983 C376.50580537 610.97489522 382.51955389 610.96867632 388.53348351 610.97317696 C390.7364623 610.97235399 392.93944627 610.96641816 395.14239502 610.95488358 C413.72179929 610.86240239 428.86125726 612.50529535 442.92578125 625.86328125 C453.52089362 637.02821479 457.60759138 649.48499585 457.46484375 664.6796875 C456.64660564 678.51535006 450.16501521 689.90351427 440.25 699.3125 C431.53270445 706.67784019 421.00000212 711.42123374 409.46276379 711.44672108 C408.52215892 711.45117892 407.58155405 711.45563676 406.61244601 711.46022969 C405.07482913 711.45995315 405.07482913 711.45995315 403.50614929 711.45967102 C402.41060708 711.46334771 401.31506487 711.4670244 400.18632442 711.4708125 C396.50791923 711.48184304 392.8295423 711.48569218 389.15112305 711.48950195 C386.51627943 711.49576724 383.88143881 711.50240155 381.24659729 711.50941467 C373.33307604 711.52915578 365.41955355 711.53924393 357.50601384 711.54814246 C353.77383782 711.55253066 350.04166321 711.55789622 346.3094883 711.56313133 C333.89214593 711.58014397 321.47480443 711.59463507 309.0574522 711.60188007 C305.83672268 711.60378979 302.61599317 711.60571015 299.39526367 711.60766602 C298.59482216 711.60814976 297.79438064 711.6086335 296.96968333 711.6091319 C284.02184684 711.61742066 271.07410309 711.64273787 258.12630703 711.67524669 C244.81452356 711.70839506 231.50278707 711.72633598 218.19096214 711.72952431 C210.72450085 711.73168262 203.25817465 711.74033066 195.79175377 711.76598549 C189.42866174 711.78779934 183.0657376 711.79569099 176.70261242 711.78601871 C173.46204483 711.78150413 170.22189158 711.78541906 166.98135757 711.80278015 C153.42530975 711.87130374 141.21006039 711.52724143 128.25 707.3125 C127.12926936 706.99164586 126.00853872 706.67079172 124.85384655 706.34021473 C109.24971447 701.84458248 97.33099843 690.69842305 88.6875 677.1875 C54.23701364 613.04545332 86.68316579 490.56086544 115.66552734 381.71289062 C125.92456199 348.36294457 138.48459199 315.92791214 153.25 284.3125 C153.72518066 283.28979004 154.20036133 282.26708008 154.68994141 281.21337891 C162.18297336 265.15215589 170.25824202 249.58421594 179.25 234.3125 C179.78044922 233.40822266 180.31089844 232.50394531 180.85742188 231.57226562 C186.70847556 221.6247582 192.70017286 211.81910625 199.25 202.3125 C200.11108419 201.04975668 200.97173277 199.78671625 201.83203125 198.5234375 C207.85422635 189.70165506 214.00718577 180.97931368 220.25 172.3125 C193.79191584 186.91451959 167.71296383 202.02945936 142.25 218.3125 C141.54842773 218.75916016 140.84685547 219.20582031 140.12402344 219.66601562 C121.76317981 231.36357999 103.86138979 243.67324395 86.41796875 256.69873047 C83.0646068 259.19487039 79.68801953 261.6589604 76.3125 264.125 C69.92183319 268.80597567 63.56522466 273.53001554 57.25 278.3125 C56.23679687 279.07949219 55.22359375 279.84648438 54.1796875 280.63671875 C46.01073074 286.86880984 38.02464409 293.31137015 30.07470703 299.81982422 C28.46776304 301.13436202 26.85720809 302.44448302 25.24609375 303.75390625 C15.17821765 311.94596264 5.2761603 320.28309886 -4.28515625 329.0625 C-6.33115954 330.93016703 -8.40017157 332.75619597 -10.5 334.5625 C-21.49600132 344.17300515 -31.91550138 354.37679637 -42.25 364.6875 C-42.76828369 365.2031955 -43.28656738 365.71889099 -43.82055664 366.25021362 C-49.11867062 371.52744492 -54.33293495 376.83019099 -59.19824219 382.515625 C-61.7496729 385.47008221 -64.44691328 388.2858346 -67.125 391.125 C-71.79234634 396.11315137 -76.23944857 401.20848881 -80.51171875 406.54296875 C-82.56259335 409.08061289 -84.65898222 411.56692835 -86.78100586 414.04467773 C-92.25015697 420.43279053 -97.43996182 426.98879726 -102.51611328 433.69189453 C-103.74941533 435.31173208 -104.99529495 436.92098793 -106.24609375 438.52734375 C-111.87234174 445.75983726 -117.2864465 453.11949821 -122.55615234 460.61572266 C-123.68487164 462.21993515 -124.82073726 463.81911261 -125.95703125 465.41796875 C-132.57486911 474.82603014 -138.69578408 484.53506902 -144.75 494.3125 C-145.13091797 494.92754395 -145.51183594 495.54258789 -145.90429688 496.17626953 C-162.04866371 522.38455964 -176.8028599 549.38949118 -189.75 577.3125 C-190.21196777 578.30813965 -190.67393555 579.3037793 -191.14990234 580.32958984 C-202.88967928 605.82955397 -211.81182792 631.44472099 -217.2734375 658.9609375 C-217.40625122 659.62898407 -217.53906494 660.29703064 -217.67590332 660.98532104 C-218.33255184 664.29584943 -218.97853705 667.60755158 -219.60839844 670.92333984 C-222.67861041 686.81979399 -227.00374306 697.05933018 -240.8046875 706.5546875 C-253.37490947 714.05680937 -267.00429024 716.34327668 -281.3671875 713.62890625 C-295.6282774 709.50789586 -306.95906517 702.08659128 -315.125 689.5 C-320.86382376 678.81660394 -322.288996 668.7409269 -321.9375 656.75 C-321.88759208 653.91678825 -321.85376962 651.08344809 -321.8203125 648.25 C-321.80998489 647.52119125 -321.79965729 646.79238251 -321.78901672 646.04148865 C-321.70027406 638.52645149 -321.96133733 631.03205778 -322.23245239 623.52294922 C-325.23916532 538.14743314 -309.11649981 451.35656379 -248.75 283.3125 C-248.27481934 282.28979004 -247.79963867 281.26708008 -247.31005859 280.21337891 C-239.81702664 264.15215589 -231.74175798 248.58421594 -222.75 233.3125 C-222.21955078 232.40822266 -221.68910156 231.50394531 -221.14257812 230.57226562 C-215.29149278 220.62470437 -209.29928358 210.81952456 -202.75 201.3125 C-201.86546086 200.01461216 -200.981377 198.71641397 -200.09765625 197.41796875 C-199.14889446 196.02833373 -198.19967841 194.63900875 -197.25 193.25 C-196.82323975 192.62512695 -196.39647949 192.00025391 -195.95678711 191.35644531 C-191.99645954 185.59623919 -187.87788784 179.95338563 -183.75 174.3125 C-198.47191698 182.10073451 -213.02212405 190.04332305 -227.21777344 198.76318359 C-229.89997586 200.40426117 -232.59328828 202.02585283 -235.2890625 203.64453125 C-262.55707872 220.05407531 -289.08062875 237.65612559 -314.58203125 256.69873047 C-317.9353932 259.19487039 -321.31198047 261.6589604 -324.6875 264.125 C-331.07816681 268.80597567 -337.43477534 273.53001554 -343.75 278.3125 C-344.76320313 279.07949219 -345.77640625 279.84648438 -346.8203125 280.63671875 C-354.98926926 286.86880984 -362.97535591 293.31137015 -370.92529297 299.81982422 C-372.53223696 301.13436202 -374.14279191 302.44448302 -375.75390625 303.75390625 C-385.82178235 311.94596264 -395.7238397 320.28309886 -405.28515625 329.0625 C-407.33115954 330.93016703 -409.40017157 332.75619597 -411.5 334.5625 C-422.49600132 344.17300515 -432.91550138 354.37679637 -443.25 364.6875 C-443.76828369 365.2031955 -444.28656738 365.71889099 -444.82055664 366.25021362 C-450.11867062 371.52744492 -455.33293495 376.83019099 -460.19824219 382.515625 C-462.7496729 385.47008221 -465.44691328 388.2858346 -468.125 391.125 C-472.79234634 396.11315137 -477.23944857 401.20848881 -481.51171875 406.54296875 C-483.56259335 409.08061289 -485.65898222 411.56692835 -487.78100586 414.04467773 C-493.25015697 420.43279053 -498.43996182 426.98879726 -503.51611328 433.69189453 C-504.74941533 435.31173208 -505.99529495 436.92098793 -507.24609375 438.52734375 C-512.87234174 445.75983726 -518.2864465 453.11949821 -523.55615234 460.61572266 C-524.68487164 462.21993515 -525.82073726 463.81911261 -526.95703125 465.41796875 C-533.57486911 474.82603014 -539.69578408 484.53506902 -545.75 494.3125 C-546.32137695 495.23506592 -546.32137695 495.23506592 -546.90429688 496.17626953 C-563.04866371 522.38455964 -577.8028599 549.38949118 -590.75 577.3125 C-591.21196777 578.30813965 -591.67393555 579.3037793 -592.14990234 580.32958984 C-603.88967928 605.82955397 -612.81182792 631.44472099 -618.2734375 658.9609375 C-618.40625122 659.62898407 -618.53906494 660.29703064 -618.67590332 660.98532104 C-619.33255184 664.29584943 -619.97853705 667.60755158 -620.60839844 670.92333984 C-623.67861041 686.81979399 -628.00374306 697.05933018 -641.8046875 706.5546875 C-654.37490947 714.05680937 -668.00429024 716.34327668 -682.3671875 713.62890625 C-696.6282774 709.50789586 -707.95906517 702.08659128 -716.125 689.5 C-730.16962909 663.48551657 -721.79506306 630.43747623 -713.9765625 603.6484375 C-693.98841404 537.03876341 -659.45333823 473.7822252 -620.75 416.3125 C-620.19248047 415.48250488 -619.63496094 414.65250977 -619.06054688 413.79736328 C-606.81315858 395.58953493 -594.10731849 377.90772691 -580.12646484 360.98876953 C-578.28388938 358.74486688 -576.48538319 356.46729002 -574.6875 354.1875 C-567.21471643 344.82685532 -559.31313693 335.81559105 -551.19921875 327.0078125 C-549.24655923 324.85895275 -547.33265424 322.68845051 -545.4296875 320.49609375 C-541.17204554 315.61514447 -536.7227507 310.92452185 -532.26757812 306.22460938 C-528.76185502 302.50948159 -525.34791594 298.74691123 -522.05737305 294.83935547 C-516.98049548 288.91016923 -516.98049548 288.91016923 -513.5625 287.25 C-511.17469435 286.01492811 -510.91389103 284.70874623 -509.75 282.3125 C-506.44928293 278.86752082 -502.96847051 275.64384098 -499.4375 272.4375 C-495.21912631 268.59831346 -491.04813861 264.71398099 -486.9050293 260.79370117 C-479.59969669 253.88899774 -472.14048581 247.23220049 -464.45458984 240.75537109 C-462.74884128 239.31151918 -461.05436452 237.8555219 -459.36328125 236.39453125 C-447.41107148 226.07069259 -435.31242839 215.88913995 -422.75 206.3125 C-421.22197282 205.13632119 -419.69397718 203.96010119 -418.16650391 202.78320312 C-416.48453787 201.48809421 -414.80096459 200.19509692 -413.1171875 198.90234375 C-410.97197935 197.25440591 -408.83224884 195.60012793 -406.6953125 193.94140625 C-394.1165224 184.19524445 -381.35354488 174.67535791 -368.21484375 165.6953125 C-365.56383631 163.88191979 -362.93730782 162.03632109 -360.31640625 160.1796875 C-347.66712358 151.22949495 -334.78649021 142.6871658 -321.75 134.3125 C-320.78674805 133.6927832 -319.82349609 133.07306641 -318.83105469 132.43457031 C-308.14436914 125.56789824 -297.41262151 118.80281308 -286.47705078 112.33935547 C-284.74758149 111.31106202 -283.02702811 110.26927271 -281.30859375 109.22265625 C-271.7288141 103.39887222 -261.98415046 97.88245524 -252.2109375 92.390625 C-249.03827499 90.60715638 -245.87266064 88.81429834 -242.7265625 86.984375 C-236.35520766 83.28111613 -229.9227485 79.82989994 -223.31347656 76.5793457 C-218.46821847 74.19142318 -213.67980102 71.7102469 -208.90380859 69.18676758 C-184.68606185 56.40783797 -159.98551098 44.91575009 -134.75 34.3125 C-133.36941406 33.72927979 -133.36941406 33.72927979 -131.9609375 33.13427734 C-90.69577877 15.79939739 -45.1777911 0.22369989 0 0 Z " transform="translate(1115.75,342.6875)" style="fill: #25DA8A;"/><path d="M0 0 C4.23463748 3.81516867 7.29590127 8.44914738 10.3125 13.25 C10.88291016 14.15298828 10.88291016 14.15298828 11.46484375 15.07421875 C18.30521109 27.29897163 20.30754362 41.41851574 20.1875 55.1875 C20.18519379 55.98844086 20.18288757 56.78938171 20.18051147 57.61459351 C20.0283984 77.14113374 16.29722783 95.93417854 12.49183655 115.0199585 C10.49967011 125.08493548 8.71467483 135.18027017 6.9609375 145.2890625 C6.67203245 146.94829901 6.38300546 148.6075143 6.09385681 150.26670837 C4.94388993 156.86968611 3.79458748 163.47276048 2.65786743 170.07803345 C1.98638825 173.97596758 1.304727 177.87200395 0.61621475 181.76696396 C0.36343712 183.20722478 0.11419845 184.64811223 -0.13110733 186.08966446 C-4.48107598 211.62445635 -4.48107598 211.62445635 -15.5546875 219.59375 C-24.17621622 224.77406769 -36.04950882 224.68104745 -45.6953125 222.6015625 C-50.91425872 220.53167535 -54.32581327 217.35204052 -56.6875 212.25 C-57.59683975 209.27580589 -58.1668142 206.31185889 -58.6875 203.25 C-59.009458 201.91387428 -59.33935769 200.57954346 -59.6875 199.25 C-60.35652344 199.78367187 -61.02554688 200.31734375 -61.71484375 200.8671875 C-87.59810117 220.94842614 -116.7840231 232.99587599 -150.0078125 228.96875 C-164.28720318 226.61559199 -176.67290776 218.45563037 -185.36328125 207.05078125 C-195.41981781 191.95349931 -195.55381827 172.77244311 -192.625 155.4375 C-187.79204255 134.81838715 -175.50568816 116.77862869 -157.71484375 105.05859375 C-122.47274164 84.00427984 -83.73225471 77.91642103 -43.6875 72.25 C-43.35796143 60.99775573 -43.2163086 51.38145615 -50.6875 42.25 C-58.13062742 35.56789059 -66.95202807 34.36113552 -76.6875 34.25 C-92.76393828 35.15808333 -107.50210928 40.21468677 -122.39453125 46.015625 C-129.46887578 48.66745522 -135.71699182 49.23416586 -142.83203125 46.2890625 C-147.28490973 43.79545055 -150.36265956 39.20182578 -152.17578125 34.49609375 C-153.70719877 27.77422297 -154.19039701 19.89190388 -150.6875 13.75 C-145.24679472 6.91808214 -138.00019146 3.09703602 -130.0625 -0.1875 C-129.15371094 -0.56801514 -128.24492187 -0.94853027 -127.30859375 -1.34057617 C-88.53092755 -17.23529686 -35.92885773 -28.28102992 0 0 Z M-107.6875 126.25 C-108.450625 126.61609375 -109.21375 126.9821875 -110 127.359375 C-120.20723453 132.53387584 -127.7625833 139.79146242 -131.9375 150.4375 C-133.21184018 156.91539593 -133.63374977 163.35868125 -131.5625 169.6875 C-127.11161239 175.77037973 -122.06086557 178.93224981 -114.6875 180.25 C-93.68580449 182.19816951 -77.71579125 174.14394797 -61.61328125 160.9140625 C-57.38111529 157.25705905 -56.88900205 154.08938401 -55.9609375 148.734375 C-55.80839508 147.88578918 -55.65585266 147.03720337 -55.49868774 146.16290283 C-55.17728073 144.36464989 -54.85978987 142.56569331 -54.54589844 140.76611328 C-54.06655435 138.02319988 -53.57336236 135.28305197 -53.078125 132.54296875 C-52.76739676 130.79441855 -52.45747494 129.04572482 -52.1484375 127.296875 C-52.00159515 126.48103943 -51.85475281 125.66520386 -51.70346069 124.824646 C-50.9695872 120.57641683 -50.5250527 116.58134885 -50.6875 112.25 C-69.45864592 112.25 -91.00939705 117.58177544 -107.6875 126.25 Z " transform="translate(2786.6875,828.75)" style="fill: #25DA8A;"/><path d="M0 0 C12.10506919 10.90598215 18.5493363 28.28674354 19.48950195 44.2565918 C19.55783979 47.81696607 19.59765032 51.37657187 19.625 54.9375 C19.65400391 56.11505859 19.68300781 57.29261719 19.71289062 58.50585938 C19.89786913 85.86844942 12.68312824 113.81274877 7.91235352 140.64331055 C6.93640556 146.1321708 5.9678119 151.62230036 5.00121975 157.1128149 C4.24671389 161.39353732 3.48818081 165.67353876 2.72847176 169.95334053 C2.369612 171.97789654 2.01200926 174.00267583 1.65575981 176.02769279 C-4.31505565 209.92762449 -4.31505565 209.92762449 -14.55078125 218.92578125 C-20.63400773 222.69582472 -26.54748202 223.78333589 -33.625 223.6875 C-34.41479248 223.67920166 -35.20458496 223.67090332 -36.01831055 223.66235352 C-42.77997272 223.46617106 -48.2301255 222.56976756 -53.2578125 217.7421875 C-56.81152797 213.3761942 -57.76267409 208.68837844 -58.6875 203.25 C-59.009458 201.91387428 -59.33935769 200.57954346 -59.6875 199.25 C-60.35652344 199.78367187 -61.02554688 200.31734375 -61.71484375 200.8671875 C-87.59810117 220.94842614 -116.7840231 232.99587599 -150.0078125 228.96875 C-164.28720318 226.61559199 -176.67290776 218.45563037 -185.36328125 207.05078125 C-195.41981781 191.95349931 -195.55381827 172.77244311 -192.625 155.4375 C-187.79204255 134.81838715 -175.50568816 116.77862869 -157.71484375 105.05859375 C-122.47274164 84.00427984 -83.73225471 77.91642103 -43.6875 72.25 C-43.35796143 60.99775573 -43.2163086 51.38145615 -50.6875 42.25 C-58.13062742 35.56789059 -66.95202807 34.36113552 -76.6875 34.25 C-92.76393828 35.15808333 -107.50210928 40.21468677 -122.39453125 46.015625 C-129.46887578 48.66745522 -135.71699182 49.23416586 -142.83203125 46.2890625 C-147.28490973 43.79545055 -150.36265956 39.20182578 -152.17578125 34.49609375 C-153.70719877 27.77422297 -154.19039701 19.89190388 -150.6875 13.75 C-145.24679472 6.91808214 -138.00019146 3.09703602 -130.0625 -0.1875 C-129.15371094 -0.56801514 -128.24492187 -0.94853027 -127.30859375 -1.34057617 C-88.53092755 -17.23529686 -35.92885773 -28.28102992 0 0 Z M-107.6875 126.25 C-108.450625 126.61609375 -109.21375 126.9821875 -110 127.359375 C-120.20723453 132.53387584 -127.7625833 139.79146242 -131.9375 150.4375 C-133.21184018 156.91539593 -133.63374977 163.35868125 -131.5625 169.6875 C-127.11161239 175.77037973 -122.06086557 178.93224981 -114.6875 180.25 C-93.68580449 182.19816951 -77.71579125 174.14394797 -61.61328125 160.9140625 C-57.38111529 157.25705905 -56.88900205 154.08938401 -55.9609375 148.734375 C-55.80839508 147.88578918 -55.65585266 147.03720337 -55.49868774 146.16290283 C-55.17728073 144.36464989 -54.85978987 142.56569331 -54.54589844 140.76611328 C-54.06655435 138.02319988 -53.57336236 135.28305197 -53.078125 132.54296875 C-52.76739676 130.79441855 -52.45747494 129.04572482 -52.1484375 127.296875 C-52.00159515 126.48103943 -51.85475281 125.66520386 -51.70346069 124.824646 C-50.9695872 120.57641683 -50.5250527 116.58134885 -50.6875 112.25 C-69.45864592 112.25 -91.00939705 117.58177544 -107.6875 126.25 Z " transform="translate(2207.6875,828.75)" style="fill: #25DA8A;"/><path d="M0 0 C9.46036449 8.5727788 15.77223928 21.18126561 18.95703125 33.359375 C19.21524658 34.34172119 19.47346191 35.32406738 19.73950195 36.33618164 C21.94838328 45.55110247 22.47356734 54.38600081 22.39453125 63.796875 C22.39146469 64.90082108 22.39146469 64.90082108 22.38833618 66.02706909 C22.21646239 104.21350235 22.21646239 104.21350235 13.2734375 115.48046875 C12.69464844 115.91488281 12.11585938 116.34929687 11.51953125 116.796875 C10.65521484 117.47556641 10.65521484 117.47556641 9.7734375 118.16796875 C5.81460529 120.76462214 3.1007917 121.60871773 -1.68707275 121.59988403 C-2.83689636 121.60263336 -3.98671997 121.60538269 -5.17138672 121.60821533 C-6.42870605 121.60102478 -7.68602539 121.59383423 -8.98144531 121.58642578 C-10.32191967 121.58586149 -11.66239465 121.58617857 -13.00286865 121.58731079 C-16.63893366 121.58788462 -20.27486672 121.57612542 -23.91090107 121.56216288 C-27.71189518 121.54966059 -31.51289231 121.54848541 -35.31390381 121.54611206 C-42.51032433 121.53989582 -49.70668408 121.52348305 -56.90307784 121.50341308 C-65.09647654 121.48105857 -73.28987813 121.47006178 -81.48329973 121.46002221 C-98.33655789 121.43911694 -115.18975689 121.40393816 -132.04296875 121.359375 C-131.74127568 124.24399739 -131.43457854 127.12794095 -131.125 130.01171875 C-131.04060669 130.82362671 -130.95621338 131.63553467 -130.8692627 132.4720459 C-129.52791631 144.85829597 -125.49607396 156.73548955 -116.04296875 165.359375 C-100.24179056 176.93206888 -81.03151559 178.99136239 -62.12890625 176.203125 C-57.24878616 175.29768626 -52.57761756 173.73873363 -47.85546875 172.234375 C-39.50284171 169.59929676 -32.34463244 167.75887275 -23.73046875 170.359375 C-17.90769601 174.69260123 -14.32554296 180.17695941 -13.04296875 187.359375 C-12.34572894 194.68039301 -13.92363361 199.33870223 -18.421875 205.13671875 C-30.20957965 217.19792003 -51.27284881 220.84803508 -67.04296875 224.359375 C-68.81800781 224.7615625 -68.81800781 224.7615625 -70.62890625 225.171875 C-94.07686089 229.42440078 -120.32759835 227.44050274 -142.04296875 217.359375 C-143.10644531 216.86824219 -144.16992188 216.37710937 -145.265625 215.87109375 C-165.13404333 205.94872512 -179.50256141 188.87631832 -186.85546875 167.984375 C-198.54153607 129.41245687 -190.8533216 88.70992852 -172.60546875 53.484375 C-165.76920658 41.30535838 -157.35007647 30.6990606 -148.04296875 20.359375 C-147.42808594 19.67101562 -146.81320312 18.98265625 -146.1796875 18.2734375 C-109.50641463 -20.49285094 -43.35624911 -34.81763791 0 0 Z M-111.04296875 51.359375 C-120.84891624 64.33111863 -120.84891624 64.33111863 -125.04296875 79.359375 C-94.02296875 79.359375 -63.00296875 79.359375 -31.04296875 79.359375 C-29.473822 65.23705428 -28.57483467 52.37488347 -37.3203125 40.36328125 C-43.16543925 33.56384809 -50.10094977 30.05340425 -59.00634766 29.16308594 C-79.63098691 27.67350263 -97.69429372 35.23475489 -111.04296875 51.359375 Z " transform="translate(1793.04296875,831.640625)" style="fill: #25DA8A;"/><path d="M0 0 C0.91910156 0.44214844 1.83820312 0.88429688 2.78515625 1.33984375 C9.37835056 4.68524652 14.62561335 8.2512267 18 15 C18.83347943 21.58585385 17.77220745 26.55796205 14 32 C7.41545498 40.25879366 1.33093743 46.62499091 -9.4140625 48.3984375 C-17.48254838 49.04302728 -23.2453497 46.43373715 -30.35546875 43.07470703 C-44.4771596 36.40381555 -58.22215449 34.66205848 -73.21875 39.8671875 C-80.18681622 42.70530436 -85.15016361 46.94797743 -88.3125 53.875 C-89.53449481 59.42952185 -89.65444448 63.30439386 -87.625 68.5625 C-81.23432351 78.20304269 -68.85646291 81.82823552 -58.62792969 85.94091797 C-9.40959051 105.77640249 -9.40959051 105.77640249 1.30859375 128.8125 C7.23974799 144.90255164 5.01839449 163.69446425 -1.765625 179.16015625 C-13.74322142 204.91424847 -33.23580805 219.55873265 -59.265625 229.2109375 C-83.79669746 237.40850694 -112.15696005 238.127868 -137 231 C-137.72396973 230.79632812 -138.44793945 230.59265625 -139.19384766 230.3828125 C-147.85670339 227.85590252 -155.82208246 224.2963679 -163.75 220 C-164.50104004 219.59700684 -165.25208008 219.19401367 -166.02587891 218.77880859 C-171.40372814 215.73074888 -175.37789442 212.52070643 -178.03125 206.76171875 C-179.58444173 199.88884535 -178.35350609 194.95748795 -174.7734375 188.9375 C-169.50353961 181.40066279 -162.33363002 173.79694185 -153 172 C-144.105186 170.84235534 -137.55669715 173.61368594 -129.78515625 177.68359375 C-113.17301388 186.37273458 -95.31667349 190.20194294 -76.6875 185.875 C-68.32303998 183.06029282 -62.39030361 177.43913528 -58.25 169.75 C-56.51840013 164.55520038 -55.83450784 160.08545751 -57.80859375 154.859375 C-64.92704154 141.95257001 -83.6068898 136.55939694 -96.4375 131.0625 C-121.65770233 120.22256071 -121.65770233 120.22256071 -132 111 C-132.69609375 110.38511719 -133.3921875 109.77023437 -134.109375 109.13671875 C-144.03231792 99.82929673 -149.9173951 87.79777999 -150.42163086 74.09521484 C-150.58766705 52.82725572 -142.13883245 32.8478577 -127.3125 17.6875 C-121.21329203 11.71288579 -114.38680264 7.22343386 -107 3 C-106.01257812 2.43539062 -105.02515625 1.87078125 -104.0078125 1.2890625 C-93.23030442 -4.46478328 -81.07397556 -8.19728837 -69 -10 C-67.948125 -10.16628906 -67.948125 -10.16628906 -66.875 -10.3359375 C-44.15433601 -13.25491169 -20.60132997 -10.24710867 0 0 Z " transform="translate(2431,823)" style="fill: #25DA8A;"/><path d="M0 0 C4.07078884 3.00884392 6.25387284 6.34363239 7.62109375 11.15625 C8.50559026 17.79453311 7.0884091 24.4507797 6 31 C5.80245117 32.19189941 5.60490234 33.38379883 5.40136719 34.61181641 C3.98364975 43.08346572 2.51010015 51.54430207 1 60 C2.13953125 59.98428955 3.2790625 59.9685791 4.453125 59.95239258 C8.70972534 59.89779967 12.96629515 59.86354377 17.22314453 59.83520508 C19.06011166 59.82018504 20.89704334 59.79976291 22.73388672 59.77368164 C25.38518054 59.73699798 28.03599732 59.72020562 30.6875 59.70703125 C31.49928711 59.69154739 32.31107422 59.67606354 33.14746094 59.66011047 C39.95431942 59.65813357 45.39057616 60.95784221 50.875 65.25 C55.39928557 71.1049578 55.30154317 76.79207612 54.5390625 83.8671875 C53.2094329 91.5944552 50.80249026 98.59313408 45 104 C39.83288479 107.197217 34.89776072 109.1324005 28.78222656 109.11352539 C27.96167786 109.11344986 27.14112915 109.11337433 26.29571533 109.11329651 C25.41953552 109.10813522 24.54335571 109.10297394 23.640625 109.09765625 C22.73624695 109.0962413 21.8318689 109.09482635 20.90008545 109.09336853 C18.01668973 109.08777911 15.13337218 109.07522853 12.25 109.0625 C10.29296987 109.05748363 8.33593853 109.05292096 6.37890625 109.04882812 C1.58590747 109.03781313 -3.20703302 109.02055574 -8 109 C-8.11891602 109.73444336 -8.23783203 110.46888672 -8.36035156 111.22558594 C-8.98556544 115.06783035 -9.61674467 118.90907468 -10.25 122.75 C-10.37305511 123.49809937 -10.49611023 124.24619873 -10.62289429 125.01696777 C-12.53403087 136.59966817 -14.55288892 148.16176266 -16.63030624 159.7156601 C-17.03658895 161.9767233 -17.44171495 164.23799077 -17.84646606 166.49932861 C-18.11931573 168.02331686 -18.39217343 169.54730367 -18.66503906 171.07128906 C-18.80078024 171.82955616 -18.93652142 172.58782326 -19.07637596 173.36906815 C-19.89183346 177.9191429 -20.71561876 182.46761818 -21.54512119 187.01515198 C-22.07401814 189.92550344 -22.59527602 192.83719048 -23.11483574 195.7492218 C-23.47373808 197.74716583 -23.84190713 199.74343848 -24.21046448 201.73962402 C-26.72059121 215.88240108 -28.93470586 229.13058829 -22.3125 242.375 C-18.24293037 246.99451147 -13.05418214 249.17135496 -7 250 C-3.28420196 250.02180578 0.431657 249.8807898 4.14257812 249.69726562 C9.84141441 249.56741872 14.32501211 250.60206525 19 254 C24.89227698 261.3139974 24.68951125 270.04620395 24 279 C22.63816402 284.68525502 19.87511671 289.15217099 15.2265625 292.72265625 C-2.68330763 302.99726596 -32.12512989 302.88158086 -51.68359375 298.09765625 C-65.16803483 293.63460802 -76.80102844 286.31245649 -83.7578125 273.59765625 C-92.45757462 255.40475747 -92.52156112 236.34465604 -89.4921875 216.73046875 C-89.32164856 215.60404465 -89.15110962 214.47762054 -88.97540283 213.31706238 C-86.05826424 194.48259032 -82.63808101 175.72668949 -79.30834961 156.96191406 C-78.36688776 151.65152586 -77.42974355 146.34037578 -76.4921875 141.02929688 C-74.66557697 130.68546678 -72.83434388 120.34246129 -71 110 C-72.15757813 109.96261719 -73.31515625 109.92523437 -74.5078125 109.88671875 C-76.04690561 109.82102575 -77.5859667 109.75457958 -79.125 109.6875 C-79.88554688 109.66494141 -80.64609375 109.64238281 -81.4296875 109.61914062 C-87.44636512 109.33386712 -91.85412292 108.14587708 -96.25 103.75 C-100.541441 97.00630699 -100.44417552 90.61854914 -99 83 C-96.63729598 74.85919802 -93.16536195 68.55699482 -85.625 64.25 C-77.04685208 60.25029385 -67.33476332 59.86818691 -58 60 C-57.77828125 58.72382812 -57.5565625 57.44765625 -57.328125 56.1328125 C-55.84148228 48.7282885 -53.66058733 41.52785941 -51.47900391 34.30419922 C-50.75077537 31.87758369 -50.0453679 29.44501713 -49.33984375 27.01171875 C-44.85851633 11.929644 -44.85851633 11.929644 -39 6 C-38.44199707 5.41927734 -37.88399414 4.83855469 -37.30908203 4.24023438 C-28.07138523 -4.95985201 -11.28459027 -5.83115857 0 0 Z " transform="translate(1951,758)" style="fill: #25DA8A;"/><path d="M0 0 C3.57991752 2.9832646 5.58960344 6.59518315 7 11 C7.20331807 13.66084712 7.30398958 16.18286608 7.27494812 18.83985901 C7.26706773 19.96386686 7.26706773 19.96386686 7.25902814 21.11058193 C7.11989086 28.72047512 5.97856994 36.08710109 4.60083008 43.56225586 C4.34169146 45.02972865 4.08383838 46.49742893 3.82714844 47.96533203 C3.13535144 51.90017627 2.42578808 55.83161701 1.71257234 59.76262736 C0.96111812 63.92189925 0.22628335 68.08410913 -0.51057434 72.24598694 C-1.75117119 79.24002115 -3.00222698 86.23211307 -4.26098633 93.22290039 C-6.01976483 102.9906972 -7.76004822 112.76171868 -9.4963249 122.53353679 C-15.85837826 158.3232793 -15.85837826 158.3232793 -18.89953953 174.96187288 C-19.50475159 178.27381112 -20.10471936 181.58646292 -20.69653702 184.90083694 C-21.33700367 188.48611982 -21.99150574 192.06856277 -22.6496582 195.65063477 C-22.92029854 197.19412173 -22.92029854 197.19412173 -23.19640636 198.76879025 C-25.05720672 208.72116719 -28.33531523 217.12872986 -36 224 C-42.86002028 228.66991246 -48.40437069 230.1521502 -56.65234375 230.23828125 C-57.38949112 230.246353 -58.12663849 230.25442474 -58.88612366 230.26274109 C-60.44188107 230.27653854 -61.99766819 230.28728 -63.5534668 230.29516602 C-65.14112239 230.30670965 -66.72873846 230.32719919 -68.31616211 230.35668945 C-70.61598953 230.39938929 -72.91466907 230.4155344 -75.21484375 230.42578125 C-76.27287453 230.45204338 -76.27287453 230.45204338 -77.35227966 230.47883606 C-80.95749893 230.46303288 -82.87197047 230.08326142 -85.92407227 228.09838867 C-88.9723591 225.01712025 -89.17847514 223.25517848 -89.24786377 219.02111816 C-89.1647094 210.4164848 -87.54857875 202.10584574 -86.03417969 193.66210938 C-85.71469917 191.83761738 -85.39609456 190.01297182 -85.07829285 188.18818665 C-84.21774096 183.2629825 -83.34436339 178.34013523 -82.46806622 173.41771126 C-81.54940346 168.24748218 -80.64101179 163.07544703 -79.73101807 157.90368652 C-78.2015117 149.2207839 -76.6635415 140.53941227 -75.12060547 131.85888672 C-73.34124092 121.84755672 -71.57577496 111.83385071 -69.81764865 101.81877089 C-68.12066463 92.1541233 -66.41333664 82.49132958 -64.7015152 72.82929993 C-63.97569163 68.73133734 -63.25352653 64.63275555 -62.53438568 60.53361511 C-61.6857998 55.69918806 -60.82813559 50.86645497 -59.96367836 46.03484154 C-59.64936302 44.26984365 -59.33808574 42.50430136 -59.03021049 40.73816872 C-53.72144406 10.3229861 -53.72144406 10.3229861 -41.75 1.6875 C-29.64340045 -5.68086158 -12.5953701 -7.23232382 0 0 Z " transform="translate(2560,822)" style="fill: #25DA8A;"/><path d="M0 0 C6.36212306 6.36212306 8.19079445 12.66571033 8.5 21.375 C8.29931721 32.31221225 3.95050568 41.8414693 -3.46484375 49.83984375 C-13.31000509 58.94372236 -25.05968291 61.62728032 -38.109375 61.4453125 C-45.61277961 60.80705609 -53.17738601 58.14432661 -58.875 53.125 C-65.03284573 44.04763068 -66.16838864 35.28877417 -64.44921875 24.4375 C-61.65980425 13.75900521 -55.27894872 5.01629644 -46.1484375 -1.015625 C-31.86315715 -9.16127422 -13.71210053 -8.94267426 0 0 Z " transform="translate(2581.875,719.875)" style="fill: #25DA8A;"/><path d="M0 0 C1.16015625 0.02900391 1.16015625 0.02900391 2.34375 0.05859375 C3.1171875 0.05988281 3.890625 0.06117188 4.6875 0.0625 C7.46456868 0.62093229 8.06980038 1.28140955 9.84375 3.49609375 C10.84278716 5.8534313 11.72162967 8.15292031 12.54296875 10.5703125 C12.7828804 11.25414505 13.02279205 11.9379776 13.26997375 12.64253235 C14.03187118 14.82014855 14.78168419 17.00170595 15.53125 19.18359375 C16.04673376 20.66368763 16.56300096 22.1435089 17.08007812 23.62304688 C18.34373689 27.24429923 19.59657659 30.86913244 20.84375 34.49609375 C21.16126221 33.57272217 21.47877441 32.64935059 21.8059082 31.69799805 C22.98804604 28.26766944 24.18162048 24.84141307 25.37866211 21.41625977 C25.89480588 19.93427081 26.40785633 18.45120071 26.91772461 16.96704102 C27.65184733 14.83186618 28.39706719 12.70084784 29.14453125 10.5703125 C29.36965897 9.9077092 29.59478668 9.2451059 29.82673645 8.56242371 C30.99759917 5.26052706 31.9562953 2.60150965 34.84375 0.49609375 C37.25390625 0.1328125 37.25390625 0.1328125 39.90625 0.18359375 C41.22302734 0.18939453 41.22302734 0.18939453 42.56640625 0.1953125 C44.84375 0.49609375 44.84375 0.49609375 46.84375 2.49609375 C47.09771729 4.65257263 47.09771729 4.65257263 47.10253906 7.35717773 C47.10884338 8.36840195 47.11514771 9.37962616 47.12164307 10.42149353 C47.1175946 11.51732254 47.11354614 12.61315155 47.109375 13.7421875 C47.11224518 15.42526756 47.11224518 15.42526756 47.11517334 17.14234924 C47.11653628 19.51881128 47.11283229 21.89528073 47.10449219 24.27172852 C47.09380441 27.91504623 47.10437892 31.55786969 47.1171875 35.20117188 C47.11586573 37.50651151 47.11330297 39.81185083 47.109375 42.1171875 C47.11342346 43.21099228 47.11747192 44.30479706 47.12164307 45.43174744 C47.11533875 46.44612381 47.10903442 47.46050018 47.10253906 48.50561523 C47.10094788 49.39893051 47.09935669 50.29224579 47.09771729 51.21263123 C46.84375 53.49609375 46.84375 53.49609375 44.84375 56.49609375 C42.8984375 56.7890625 42.8984375 56.7890625 40.71875 56.68359375 C39.44 56.62171875 38.16125 56.55984375 36.84375 56.49609375 C35.39412817 53.59685009 35.62248519 50.9730902 35.52734375 47.73828125 C35.50656265 47.0752298 35.48578156 46.41217834 35.46437073 45.72903442 C35.39895769 43.60982681 35.34002895 41.49049475 35.28125 39.37109375 C35.23805691 37.93488294 35.19444236 36.49868473 35.15039062 35.0625 C35.04328501 31.54049781 34.94199425 28.0183555 34.84375 24.49609375 C34.45050537 25.61636963 34.45050537 25.61636963 34.04931641 26.75927734 C32.86169543 30.13199485 31.66534207 33.5015492 30.46875 36.87109375 C30.05625 38.04671875 29.64375 39.22234375 29.21875 40.43359375 C28.81914062 41.55507813 28.41953125 42.6765625 28.0078125 43.83203125 C27.64123535 44.8689209 27.2746582 45.90581055 26.89697266 46.97412109 C25.84375 49.49609375 25.84375 49.49609375 23.84375 51.49609375 C20.90625 51.93359375 20.90625 51.93359375 17.84375 51.49609375 C15.45063113 48.14783813 14.00074885 44.6027428 12.58203125 40.7578125 C12.18564453 39.69111328 11.78925781 38.62441406 11.38085938 37.52539062 C10.97673828 36.42259766 10.57261719 35.31980469 10.15625 34.18359375 C9.74052734 33.06146484 9.32480469 31.93933594 8.89648438 30.78320312 C7.87442004 28.02245464 6.85701136 25.26008264 5.84375 22.49609375 C5.85422363 23.45499512 5.86469727 24.41389648 5.87548828 25.40185547 C5.91164328 28.95390094 5.93463393 32.50593009 5.95361328 36.05810547 C5.96368118 37.59654473 5.97733646 39.13496482 5.99462891 40.67333984 C6.01884317 42.88253508 6.03022491 45.0914777 6.0390625 47.30078125 C6.04938507 47.99041962 6.05970764 48.68005798 6.07034302 49.39059448 C6.07074478 51.09410281 5.96566026 52.79695318 5.84375 54.49609375 C3.84375 56.49609375 3.84375 56.49609375 0.21875 56.62109375 C-0.895 56.57984375 -2.00875 56.53859375 -3.15625 56.49609375 C-4.92381212 53.4384042 -5.4114212 51.21718719 -5.4309082 47.69921875 C-5.44044022 46.75143555 -5.44997223 45.80365234 -5.45979309 44.82714844 C-5.45842598 43.30202637 -5.45842598 43.30202637 -5.45703125 41.74609375 C-5.46131638 40.69583008 -5.4656015 39.64556641 -5.47001648 38.56347656 C-5.4757558 36.34440837 -5.47626297 34.12532137 -5.47192383 31.90625 C-5.46876182 28.50878907 -5.49223576 25.11219716 -5.51757812 21.71484375 C-5.51985092 19.55859485 -5.52055471 17.40234361 -5.51953125 15.24609375 C-5.53334587 13.72097168 -5.53334587 13.72097168 -5.54743958 12.16503906 C-5.54121078 11.21725586 -5.53498199 10.26947266 -5.52856445 9.29296875 C-5.52919388 8.46120117 -5.5298233 7.62943359 -5.5304718 6.77246094 C-4.95361776 3.26349485 -3.55904495 0.81883824 0 0 Z M35.84375 18.49609375 C36.84375 20.49609375 36.84375 20.49609375 36.84375 20.49609375 Z " transform="translate(2209.15625,627.50390625)" style="fill: #A5A5A5;"/><path d="M0 0 C1.16015625 0.02900391 1.16015625 0.02900391 2.34375 0.05859375 C3.1171875 0.05988281 3.890625 0.06117188 4.6875 0.0625 C7.46456868 0.62093229 8.06980038 1.28140955 9.84375 3.49609375 C10.84278716 5.8534313 11.72162967 8.15292031 12.54296875 10.5703125 C12.7828804 11.25414505 13.02279205 11.9379776 13.26997375 12.64253235 C14.03187118 14.82014855 14.78168419 17.00170595 15.53125 19.18359375 C16.04673376 20.66368763 16.56300096 22.1435089 17.08007812 23.62304688 C18.34373689 27.24429923 19.59657659 30.86913244 20.84375 34.49609375 C21.16126221 33.57272217 21.47877441 32.64935059 21.8059082 31.69799805 C22.98804604 28.26766944 24.18162048 24.84141307 25.37866211 21.41625977 C25.89480588 19.93427081 26.40785633 18.45120071 26.91772461 16.96704102 C27.65184733 14.83186618 28.39706719 12.70084784 29.14453125 10.5703125 C29.36965897 9.9077092 29.59478668 9.2451059 29.82673645 8.56242371 C30.99759917 5.26052706 31.9562953 2.60150965 34.84375 0.49609375 C37.25390625 0.1328125 37.25390625 0.1328125 39.90625 0.18359375 C41.22302734 0.18939453 41.22302734 0.18939453 42.56640625 0.1953125 C44.84375 0.49609375 44.84375 0.49609375 46.84375 2.49609375 C47.09771729 4.65257263 47.09771729 4.65257263 47.10253906 7.35717773 C47.10884338 8.36840195 47.11514771 9.37962616 47.12164307 10.42149353 C47.1175946 11.51732254 47.11354614 12.61315155 47.109375 13.7421875 C47.11224518 15.42526756 47.11224518 15.42526756 47.11517334 17.14234924 C47.11653628 19.51881128 47.11283229 21.89528073 47.10449219 24.27172852 C47.09380441 27.91504623 47.10437892 31.55786969 47.1171875 35.20117188 C47.11586573 37.50651151 47.11330297 39.81185083 47.109375 42.1171875 C47.11342346 43.21099228 47.11747192 44.30479706 47.12164307 45.43174744 C47.11533875 46.44612381 47.10903442 47.46050018 47.10253906 48.50561523 C47.10094788 49.39893051 47.09935669 50.29224579 47.09771729 51.21263123 C46.84375 53.49609375 46.84375 53.49609375 44.84375 56.49609375 C42.8984375 56.7890625 42.8984375 56.7890625 40.71875 56.68359375 C39.44 56.62171875 38.16125 56.55984375 36.84375 56.49609375 C35.39412817 53.59685009 35.62248519 50.9730902 35.52734375 47.73828125 C35.50656265 47.0752298 35.48578156 46.41217834 35.46437073 45.72903442 C35.39895769 43.60982681 35.34002895 41.49049475 35.28125 39.37109375 C35.23805691 37.93488294 35.19444236 36.49868473 35.15039062 35.0625 C35.04328501 31.54049781 34.94199425 28.0183555 34.84375 24.49609375 C34.45050537 25.61636963 34.45050537 25.61636963 34.04931641 26.75927734 C32.86169543 30.13199485 31.66534207 33.5015492 30.46875 36.87109375 C30.05625 38.04671875 29.64375 39.22234375 29.21875 40.43359375 C28.81914063 41.55507813 28.41953125 42.6765625 28.0078125 43.83203125 C27.64123535 44.8689209 27.2746582 45.90581055 26.89697266 46.97412109 C25.84375 49.49609375 25.84375 49.49609375 23.84375 51.49609375 C20.90625 51.93359375 20.90625 51.93359375 17.84375 51.49609375 C15.45063113 48.14783813 14.00074885 44.6027428 12.58203125 40.7578125 C12.18564453 39.69111328 11.78925781 38.62441406 11.38085938 37.52539062 C10.97673828 36.42259766 10.57261719 35.31980469 10.15625 34.18359375 C9.74052734 33.06146484 9.32480469 31.93933594 8.89648438 30.78320312 C7.87442004 28.02245464 6.85701136 25.26008264 5.84375 22.49609375 C5.85422363 23.45499512 5.86469727 24.41389648 5.87548828 25.40185547 C5.91164328 28.95390094 5.93463393 32.50593009 5.95361328 36.05810547 C5.96368118 37.59654473 5.97733646 39.13496482 5.99462891 40.67333984 C6.01884317 42.88253508 6.03022491 45.0914777 6.0390625 47.30078125 C6.04938507 47.99041962 6.05970764 48.68005798 6.07034302 49.39059448 C6.07074478 51.09410281 5.96566026 52.79695318 5.84375 54.49609375 C3.84375 56.49609375 3.84375 56.49609375 0.21875 56.62109375 C-0.895 56.57984375 -2.00875 56.53859375 -3.15625 56.49609375 C-4.92381212 53.4384042 -5.4114212 51.21718719 -5.4309082 47.69921875 C-5.44044022 46.75143555 -5.44997223 45.80365234 -5.45979309 44.82714844 C-5.45842598 43.30202637 -5.45842598 43.30202637 -5.45703125 41.74609375 C-5.46131638 40.69583008 -5.4656015 39.64556641 -5.47001648 38.56347656 C-5.4757558 36.34440837 -5.47626297 34.12532137 -5.47192383 31.90625 C-5.46876182 28.50878907 -5.49223576 25.11219716 -5.51757812 21.71484375 C-5.51985092 19.55859485 -5.52055471 17.40234361 -5.51953125 15.24609375 C-5.53334587 13.72097168 -5.53334587 13.72097168 -5.54743958 12.16503906 C-5.54121078 11.21725586 -5.53498199 10.26947266 -5.52856445 9.29296875 C-5.52919388 8.46120117 -5.5298233 7.62943359 -5.5304718 6.77246094 C-4.95361776 3.26349485 -3.55904495 0.81883824 0 0 Z M35.84375 18.49609375 C36.84375 20.49609375 36.84375 20.49609375 36.84375 20.49609375 Z " transform="translate(1633.15625,627.50390625)" style="fill: #A5A5A5;"/><path d="M0 0 C5.91072914 4.82191062 8.85619389 10.51888974 10 18 C10.8879503 28.88051775 10.39540505 38.32424042 3.25 46.9375 C-2.30904035 52.61695277 -6.92303379 54.15030474 -14.8125 54.5 C-21.51405687 54.32195651 -26.68895623 53.21759358 -32 49 C-40.15922044 39.7528835 -40.78358227 29.87510334 -40.18212891 18.10839844 C-39.56382379 10.95064647 -36.80134028 6.40439972 -31.6875 1.5 C-22.36127114 -6.03389172 -10.19079975 -6.05292468 0 0 Z M-23 9 C-28.47047207 15.94897804 -28.61813107 22.3903172 -28 31 C-26.94298327 35.81875276 -25.21945031 40.22404585 -21 43 C-16.43133777 44.33397962 -13.11080335 44.46108818 -8.6875 42.625 C-3.49291728 37.55122153 -1.77558291 32.20190008 -1.5 25 C-1.73457644 18.44023736 -3.35725329 12.91613431 -7.8125 8 C-13.53314274 5.38484903 -17.80433984 5.42076744 -23 9 Z " transform="translate(2740,631)" style="fill: #A5A5A5;"/><path d="M0 0 C5.91072914 4.82191062 8.85619389 10.51888974 10 18 C10.8879503 28.88051775 10.39540505 38.32424042 3.25 46.9375 C-2.30904035 52.61695277 -6.92303379 54.15030474 -14.8125 54.5 C-21.51405687 54.32195651 -26.68895623 53.21759358 -32 49 C-40.15922044 39.7528835 -40.78358227 29.87510334 -40.18212891 18.10839844 C-39.56382379 10.95064647 -36.80134028 6.40439972 -31.6875 1.5 C-22.36127114 -6.03389172 -10.19079975 -6.05292468 0 0 Z M-23 9 C-28.47047207 15.94897804 -28.61813107 22.3903172 -28 31 C-26.94298327 35.81875276 -25.21945031 40.22404585 -21 43 C-16.43133777 44.33397962 -13.11080335 44.46108818 -8.6875 42.625 C-3.49291728 37.55122153 -1.77558291 32.20190008 -1.5 25 C-1.73457644 18.44023736 -3.35725329 12.91613431 -7.8125 8 C-13.53314274 5.38484903 -17.80433984 5.42076744 -23 9 Z " transform="translate(2494,631)" style="fill: #A5A5A5;"/><path d="M0 0 C5.44766877 3.59186952 9.24035739 7.64041687 11.375 13.86328125 C13.44582466 24.25623252 13.46483035 35.67539437 8 45 C7.46375 45.928125 6.9275 46.85625 6.375 47.8125 C0.56984984 53.15934883 -5.24047059 55.32562573 -13.125 55.5625 C-21.35024475 55.21495445 -26.09500207 53.23484228 -31.8125 47.375 C-38.52279264 39.04075526 -38.8441652 29.34399605 -38 19 C-36.85619389 11.51888974 -33.91072914 5.82191062 -28 1 C-19.27959133 -4.17957159 -8.9705989 -5.04371022 0 0 Z M-21 10 C-26.02909298 16.28636622 -26.64051055 23.25564517 -26 31 C-24.75646088 36.64978008 -22.46852423 40.21894103 -18 44 C-14.4679429 45.76602855 -10.71548164 45.04779154 -7 44 C-3.31934872 41.22630346 -1.41311736 37.30106027 0 33 C0.81236052 25.09365403 0.98628196 17.53374877 -4 11 C-9.1254476 5.70370414 -15.0069872 6.44858501 -21 10 Z " transform="translate(2131,630)" style="fill: #A5A5A5;"/><path d="M0 0 C0.98742188 -0.00386719 1.97484375 -0.00773438 2.9921875 -0.01171875 C4.0234375 -0.00011719 5.0546875 0.01148438 6.1171875 0.0234375 C7.12523438 0.01183594 8.13328125 0.00023437 9.171875 -0.01171875 C15.82890325 0.01415053 23.34651242 0.21382341 28.61376953 4.81494141 C32.97741434 9.82780011 33.33639654 14.22386162 33.27734375 20.6015625 C32.76067845 25.669129 30.64445445 28.89195881 26.8671875 32.3359375 C24.9921875 33.3984375 24.9921875 33.3984375 22.9921875 33.3984375 C23.29511719 33.88723389 23.59804687 34.37603027 23.91015625 34.87963867 C25.28238589 37.10819238 26.63734011 39.34677755 27.9921875 41.5859375 C28.46914062 42.35486328 28.94609375 43.12378906 29.4375 43.91601562 C30.11425781 45.04233398 30.11425781 45.04233398 30.8046875 46.19140625 C31.22363281 46.8774292 31.64257812 47.56345215 32.07421875 48.27026367 C33.1678304 50.8056394 33.22910452 52.66372988 32.9921875 55.3984375 C31.42300258 56.96762242 29.85133591 56.68102693 27.6796875 56.7734375 C26.89980469 56.82242188 26.11992187 56.87140625 25.31640625 56.921875 C21.81010936 56.13222158 20.94089209 54.36453807 18.9921875 51.3984375 C17.29691082 48.18059563 15.73552308 44.89642351 14.25585938 41.57421875 C13.20857016 39.3104304 13.20857016 39.3104304 10.9921875 36.3984375 C7.35393016 35.32209882 7.35393016 35.32209882 3.9921875 35.3984375 C4.00266113 35.96353027 4.01313477 36.52862305 4.02392578 37.11083984 C4.06543538 39.66499403 4.0914971 42.21907732 4.1171875 44.7734375 C4.13394531 45.66289063 4.15070312 46.55234375 4.16796875 47.46875 C4.17441406 48.31953125 4.18085938 49.1703125 4.1875 50.046875 C4.19797363 50.83239746 4.20844727 51.61791992 4.21923828 52.42724609 C3.9921875 54.3984375 3.9921875 54.3984375 1.9921875 56.3984375 C0.1171875 56.69921875 0.1171875 56.69921875 -2.0078125 56.7109375 C-2.7090625 56.72769531 -3.4103125 56.74445312 -4.1328125 56.76171875 C-4.7515625 56.64183594 -5.3703125 56.52195312 -6.0078125 56.3984375 C-8.16651033 53.16039076 -8.26272594 52.25482958 -8.2824707 48.515625 C-8.29200272 47.52449707 -8.30153473 46.53336914 -8.31135559 45.51220703 C-8.31044418 44.44341309 -8.30953278 43.37461914 -8.30859375 42.2734375 C-8.31287888 41.17499512 -8.317164 40.07655273 -8.32157898 38.94482422 C-8.32732435 36.62142629 -8.32782103 34.29801037 -8.32348633 31.97460938 C-8.32032494 28.41244984 -8.34378878 24.85111938 -8.36914062 21.2890625 C-8.37141337 19.03385522 -8.37211723 16.7786457 -8.37109375 14.5234375 C-8.3803035 13.45464355 -8.38951324 12.38584961 -8.39900208 11.28466797 C-8.39277328 10.29354004 -8.38654449 9.30241211 -8.38012695 8.28125 C-8.38075638 7.40871582 -8.3813858 6.53618164 -8.3820343 5.63720703 C-7.55893833 0.71306266 -4.52359549 0.01718753 0 0 Z M3.9921875 10.3984375 C3.9921875 15.6784375 3.9921875 20.9584375 3.9921875 26.3984375 C12.42321309 26.80851192 12.42321309 26.80851192 19.9921875 23.3984375 C21.54679055 20.28923141 21.71939443 16.76760722 20.9921875 13.3984375 C18.63379449 10.82669354 17.25324206 10.42208375 13.7578125 10.10546875 C12.01757812 10.15767578 12.01757812 10.15767578 10.2421875 10.2109375 C8.1796875 10.2728125 6.1171875 10.3346875 3.9921875 10.3984375 Z " transform="translate(2768.0078125,627.6015625)" style="fill: #A5A5A5;"/><path d="M0 0 C1.4082605 0.00277954 1.4082605 0.00277954 2.8449707 0.00561523 C4.40054688 0.00464844 4.40054688 0.00464844 5.98754883 0.00366211 C7.07100586 0.02364258 8.15446289 0.04362305 9.27075195 0.06420898 C10.33487305 0.05711914 11.39899414 0.0500293 12.49536133 0.04272461 C20.27024738 0.10515421 26.40891954 0.80014949 32.52075195 6.00170898 C36.87848328 11.28380756 36.16223468 17.9720705 35.58325195 24.50170898 C33.39828715 29.11441246 30.53725355 31.40014554 26.58325195 34.50170898 C27.22133789 35.61030273 27.85942383 36.71889648 28.5168457 37.86108398 C29.35173302 39.32448197 30.18635455 40.78803161 31.02075195 42.25170898 C31.44163086 42.98131836 31.86250977 43.71092773 32.29614258 44.46264648 C32.69897461 45.17163086 33.10180664 45.88061523 33.5168457 46.61108398 C33.88865967 47.26044922 34.26047363 47.90981445 34.64355469 48.57885742 C35.61625622 50.56924382 36.22508008 52.3158113 36.58325195 54.50170898 C36.08825195 55.49170898 36.08825195 55.49170898 35.58325195 56.50170898 C32.10831789 57.05797313 29.04091415 57.23892825 25.58325195 56.50170898 C21.99371025 53.25701408 20.20307725 48.78980953 18.1340332 44.48999023 C17.64290039 43.50385742 17.15176758 42.51772461 16.64575195 41.50170898 C16.0134668 40.10952148 16.0134668 40.10952148 15.3684082 38.68920898 C13.64453033 36.11479697 13.64453033 36.11479697 9.8918457 35.68920898 C8.80000977 35.62733398 7.70817383 35.56545898 6.58325195 35.50170898 C6.59372559 36.06680176 6.60419922 36.63189453 6.61499023 37.21411133 C6.65649984 39.76826551 6.68256155 42.3223488 6.70825195 44.87670898 C6.72500977 45.76616211 6.74176758 46.65561523 6.7590332 47.57202148 C6.76547852 48.42280273 6.77192383 49.27358398 6.77856445 50.15014648 C6.78903809 50.93566895 6.79951172 51.72119141 6.81030273 52.53051758 C6.58325195 54.50170898 6.58325195 54.50170898 4.58325195 56.50170898 C-1.73932869 56.84041866 -1.73932869 56.84041866 -4.41674805 55.50170898 C-5.37237808 52.6348189 -5.55349188 50.79728663 -5.57788086 47.81835938 C-5.5874884 46.87050064 -5.59709595 45.92264191 -5.60699463 44.94606018 C-5.61124451 43.92415085 -5.61549438 42.90224152 -5.61987305 41.84936523 C-5.62557312 40.79768661 -5.63127319 39.746008 -5.637146 38.66246033 C-5.64659411 36.43741868 -5.65312923 34.21236306 -5.65698242 31.98730469 C-5.6667 28.58105162 -5.69773049 25.17539885 -5.72924805 21.76928711 C-5.73577697 19.6084834 -5.74102788 17.44767538 -5.74487305 15.28686523 C-5.75721985 14.26698013 -5.76956665 13.24709503 -5.7822876 12.19630432 C-5.7792865 11.24529343 -5.7762854 10.29428253 -5.77319336 9.31445312 C-5.77683899 8.47966934 -5.78048462 7.64488556 -5.78424072 6.7848053 C-5.18587016 3.06734995 -3.74661032 0.77778404 0 0 Z M6.58325195 10.50170898 C6.58325195 15.78170898 6.58325195 21.06170898 6.58325195 26.50170898 C15.20984986 27.21413614 15.20984986 27.21413614 22.58325195 23.50170898 C24.52988827 20.93568838 24.59095931 19.69053925 24.45825195 16.43920898 C23.41333729 12.9312812 22.73162419 12.26812245 19.58325195 10.50170898 C16.30609193 10.13962802 16.30609193 10.13962802 12.83325195 10.31420898 C10.77075195 10.37608398 8.70825195 10.43795898 6.58325195 10.50170898 Z " transform="translate(2158.416748046875,627.498291015625)" style="fill: #A5A5A5;"/><path d="M0 0 C0.79696289 -0.00628418 1.59392578 -0.01256836 2.41503906 -0.01904297 C3.25647461 -0.00502441 4.09791016 0.00899414 4.96484375 0.0234375 C6.25213379 0.03866455 6.25213379 0.03866455 7.56542969 0.05419922 C16.33195357 0.268625 23.8526105 1.35423287 30.43359375 7.59375 C36.10834738 14.5664526 37.68017466 23.62215671 36.90234375 32.3984375 C35.71495818 40.48137412 33.66743957 47.3532813 26.90234375 52.3984375 C19.85049665 56.67736458 13.43093685 56.9020462 5.33984375 56.6484375 C4.23576172 56.63039063 3.13167969 56.61234375 1.99414062 56.59375 C-0.70405606 56.54702798 -3.4003766 56.4815389 -6.09765625 56.3984375 C-7.32877532 53.93619935 -7.23772328 52.29095844 -7.25878906 49.53735352 C-7.26839661 48.5261293 -7.27800415 47.51490509 -7.28790283 46.47303772 C-7.29215271 45.37720871 -7.29640259 44.2813797 -7.30078125 43.15234375 C-7.30933136 41.46926369 -7.30933136 41.46926369 -7.3180542 39.75218201 C-7.32751213 37.37573187 -7.33404132 34.99926857 -7.33789062 32.62280273 C-7.34760695 28.97942374 -7.37862792 25.33660613 -7.41015625 21.69335938 C-7.41668499 19.38802419 -7.42193597 17.08268497 -7.42578125 14.77734375 C-7.43812805 13.68353897 -7.45047485 12.58973419 -7.4631958 11.46278381 C-7.4601947 10.44840744 -7.4571936 9.43403107 -7.45410156 8.38891602 C-7.45774719 7.49560074 -7.46139282 6.60228546 -7.46514893 5.68190002 C-6.75273302 1.25521309 -4.213716 0.01989613 0 0 Z M4.90234375 10.3984375 C4.90234375 22.6084375 4.90234375 34.8184375 4.90234375 47.3984375 C14.23931633 46.92912897 14.23931633 46.92912897 20.90234375 42.3984375 C24.46409973 37.11721311 25.3601798 31.25554941 24.6171875 24.99609375 C23.49885466 19.34804303 22.19146325 14.97902001 17.27734375 11.5859375 C13.08367815 9.90057818 13.08367815 9.90057818 4.90234375 10.3984375 Z " transform="translate(2584.09765625,627.6015625)" style="fill: #A5A5A5;"/><path d="M0 0 C19.09546015 0.04132098 19.09546015 0.04132098 26.37573242 6.14648438 C33.3361756 13.43701043 34.74805275 20.50155461 34.69677734 30.37036133 C34.42477484 38.35190549 32.10050172 45.71719956 26.27026367 51.38085938 C20.87430744 55.09610793 16.36466565 56.50586397 9.88354492 56.51367188 C8.86325195 56.51496094 7.84295898 56.51625 6.79174805 56.51757812 C5.7327832 56.51371094 4.67381836 56.50984375 3.58276367 56.50585938 C2.51219727 56.50972656 1.44163086 56.51359375 0.33862305 56.51757812 C-0.67780273 56.51628906 -1.69422852 56.515 -2.74145508 56.51367188 C-4.14077271 56.51197998 -4.14077271 56.51197998 -5.56835938 56.51025391 C-7.72973633 56.38085938 -7.72973633 56.38085938 -8.72973633 55.38085938 C-8.8336357 53.7344165 -8.86826215 52.08354206 -8.875 50.43383789 C-8.88137985 49.37926895 -8.8877597 48.32470001 -8.89433289 47.23817444 C-8.89544571 46.09029953 -8.89655853 44.94242462 -8.89770508 43.75976562 C-8.90103348 42.58953354 -8.90436188 41.41930145 -8.90779114 40.21360779 C-8.91286542 37.73282262 -8.91519931 35.25203059 -8.91503906 32.77124023 C-8.9172249 28.96326518 -8.93537384 25.15557995 -8.9543457 21.34765625 C-8.95727957 18.94336037 -8.95926441 16.53906311 -8.96020508 14.13476562 C-8.96739059 12.98891495 -8.97457611 11.84306427 -8.98197937 10.66249084 C-8.97890274 9.60476974 -8.97582611 8.54704865 -8.97265625 7.45727539 C-8.97408127 6.52319351 -8.97550629 5.58911163 -8.97697449 4.62672424 C-8.38926495 -0.71191849 -4.27353986 0.07539854 0 0 Z M3.27026367 10.38085938 C3.27026367 22.59085938 3.27026367 34.80085937 3.27026367 47.38085938 C11.98685708 46.78001718 11.98685708 46.78001718 18.27026367 42.38085938 C22.31637988 37.14989917 22.8903061 31.77205789 22.66088867 25.29101562 C21.95287369 20.01630404 20.08279851 16.08354362 16.20776367 12.44335938 C11.49292601 9.85780324 9.26231363 10.38085938 3.27026367 10.38085938 Z " transform="translate(2365.729736328125,627.619140625)" style="fill: #A5A5A5;"/><path d="M0 0 C2.05772385 2.05772385 1.20954919 6.39733261 1.24609375 9.234375 C1.27904595 10.94010903 1.31225735 12.64583807 1.34570312 14.3515625 C1.39303873 17.04846588 1.43743213 19.74535104 1.47680664 22.44238281 C1.51663325 25.03993626 1.56816829 27.63706 1.62109375 30.234375 C1.6295079 31.03663513 1.63792206 31.83889526 1.64659119 32.66546631 C1.73852737 36.84840949 1.9846451 40.22398537 4 44 C7.17366811 46.38025109 10.1345548 46.24159033 14 46 C14.7425 45.95875 15.485 45.9175 16.25 45.875 C18.28493096 45.09322416 18.28493096 45.09322416 19.09008789 42.45166016 C20.1182995 38.55124272 20.2967331 34.90030295 20.30859375 30.8984375 C20.33373409 29.34114177 20.35913237 27.78385019 20.38476562 26.2265625 C20.41357273 23.79297798 20.43761924 21.35946489 20.45629883 18.92578125 C20.47794645 16.56214686 20.51735715 14.1992994 20.55859375 11.8359375 C20.55870956 11.10982269 20.55882538 10.38370789 20.5589447 9.6355896 C20.62002378 6.51698279 20.83505924 4.30259673 22.34008789 1.54150391 C24 0 24 0 27 -0.5 C30 0 30 0 31.66259766 1.59570312 C33.46567465 4.83716026 33.38836557 7.26803417 33.3984375 10.96875 C33.40130768 11.64490356 33.40417786 12.32105713 33.40713501 13.0177002 C33.40917333 14.44995968 33.40365956 15.88224714 33.39111328 17.31445312 C33.37525428 19.46551051 33.39086261 21.61463105 33.41015625 23.765625 C33.44188427 43.9906999 33.44188427 43.9906999 27.6875 51.5625 C22.56349733 56.20985126 17.88362786 57.5378107 11.0625 57.4375 C10.35319336 57.43065186 9.64388672 57.42380371 8.91308594 57.41674805 C1.91704922 57.20085094 -1.27227421 55.65195563 -6.25 50.8125 C-11.73287975 42.00072897 -11.46881479 33.11652052 -11.39111328 23.10498047 C-11.37490129 20.60980692 -11.39108708 18.11622076 -11.41015625 15.62109375 C-11.40817607 14.03124643 -11.40433706 12.4414001 -11.3984375 10.8515625 C-11.40451019 10.10782379 -11.41058289 9.36408508 -11.4168396 8.59780884 C-11.3469651 3.48848715 -11.3469651 3.48848715 -9.60058594 1.02978516 C-6.5500718 -0.93285496 -3.52496259 -0.22741694 0 0 Z " transform="translate(1703,628)" style="fill: #A5A5A5;"/><path d="M0 0 C1.3454187 0.00277954 1.3454187 0.00277954 2.71801758 0.00561523 C4.20591797 0.00464844 4.20591797 0.00464844 5.72387695 0.00366211 C7.27751953 0.03363281 7.27751953 0.03363281 8.86254883 0.06420898 C9.87897461 0.05711914 10.89540039 0.0500293 11.94262695 0.04272461 C19.52191102 0.10633384 25.58513413 0.88199869 31.55004883 5.93920898 C35.75623875 11.01137919 36.18115844 14.94230405 36.04614258 21.45483398 C35.48253262 26.08236836 33.9729186 29.21176678 30.67504883 32.50170898 C24.81858777 36.55164072 18.90403127 37.64904612 11.86254883 37.56420898 C10.88672852 37.55518555 9.9109082 37.54616211 8.90551758 37.53686523 C8.16946289 37.52526367 7.4334082 37.51366211 6.67504883 37.50170898 C6.69825195 38.70569336 6.72145508 39.90967773 6.74536133 41.15014648 C6.76411745 42.72566113 6.78231782 44.30118247 6.80004883 45.87670898 C6.82518555 47.06780273 6.82518555 47.06780273 6.85083008 48.28295898 C6.86840355 50.35662914 6.7784005 52.4305414 6.67504883 54.50170898 C4.67504883 56.50170898 4.67504883 56.50170898 1.17504883 56.68920898 C-2.32495117 56.50170898 -2.32495117 56.50170898 -4.32495117 55.50170898 C-5.2805812 52.6348189 -5.461695 50.79728663 -5.48608398 47.81835938 C-5.49569153 46.87050064 -5.50529907 45.92264191 -5.51519775 44.94606018 C-5.51944763 43.92415085 -5.52369751 42.90224152 -5.52807617 41.84936523 C-5.53377625 40.79768661 -5.53947632 39.746008 -5.54534912 38.66246033 C-5.55479724 36.43741868 -5.56133235 34.21236306 -5.56518555 31.98730469 C-5.57490312 28.58105162 -5.60593362 25.17539885 -5.63745117 21.76928711 C-5.6439801 19.6084834 -5.649231 17.44767538 -5.65307617 15.28686523 C-5.66542297 14.26698013 -5.67776978 13.24709503 -5.69049072 12.19630432 C-5.68748962 11.24529343 -5.68448853 10.29428253 -5.68139648 9.31445312 C-5.68504211 8.47966934 -5.68868774 7.64488556 -5.69244385 6.7848053 C-5.10553728 3.13857149 -3.68147148 0.79443704 0 0 Z M6.67504883 10.50170898 C6.67504883 16.11170898 6.67504883 21.72170898 6.67504883 27.50170898 C13.83595096 27.88038938 13.83595096 27.88038938 20.73754883 26.43920898 C23.50925063 23.66750718 24.07929993 21.34097965 24.67504883 17.50170898 C24.01140491 14.51531134 23.54405173 13.08037681 20.97973633 11.37280273 C18.02074258 10.2544034 15.57941488 10.30813581 12.42504883 10.37670898 C10.52754883 10.41795898 8.63004883 10.45920898 6.67504883 10.50170898 Z " transform="translate(1868.324951171875,627.498291015625)" style="fill: #A5A5A5;"/><path d="M0 0 C1.28197266 -0.02900391 1.28197266 -0.02900391 2.58984375 -0.05859375 C6.04748029 0.63511848 6.84999217 1.64439396 9.0625 4.4375 C10.56547315 7.854183 11.67965611 11.37730212 12.8046875 14.93359375 C13.13671173 15.9592897 13.46873596 16.98498566 13.81082153 18.04176331 C14.50770444 20.20757291 15.19822776 22.37543774 15.8828125 24.54516602 C16.93467157 27.86607016 18.01674616 31.17606467 19.1015625 34.48632812 C19.77529083 36.59315824 20.44722711 38.70056243 21.1171875 40.80859375 C21.60600906 42.29316322 21.60600906 42.29316322 22.10470581 43.807724 C22.39225739 44.73541092 22.67980896 45.66309784 22.97607422 46.61889648 C23.23492401 47.43067856 23.4937738 48.24246063 23.76046753 49.07884216 C24.1410033 52.05055471 23.35426235 53.77772762 22.0625 56.4375 C14.59825858 56.80459384 14.59825858 56.80459384 12.375 55.28125 C9.74631177 51.58856891 9.7325511 46.81860334 9.0625 42.4375 C3.1225 42.4375 -2.8175 42.4375 -8.9375 42.4375 C-9.2675 44.7475 -9.5975 47.0575 -9.9375 49.4375 C-10.96909013 52.5322704 -11.62558157 54.12558157 -13.9375 56.4375 C-17.4375 56.6875 -17.4375 56.6875 -20.9375 56.4375 C-21.5975 55.7775 -22.2575 55.1175 -22.9375 54.4375 C-22.60287976 48.0845972 -20.85485444 42.3722701 -18.8828125 36.35546875 C-18.58059784 35.41947342 -18.27838318 34.48347809 -17.9670105 33.51911926 C-17.33010427 31.55396598 -16.68950933 29.59000475 -16.04541016 27.62719727 C-15.06103054 24.62051169 -14.09435846 21.6085122 -13.12890625 18.59570312 C-12.50626684 16.68194696 -11.88260453 14.76852322 -11.2578125 12.85546875 C-10.9702005 11.95547653 -10.6825885 11.05548431 -10.38626099 10.1282196 C-10.10942474 9.2933754 -9.8325885 8.45853119 -9.54736328 7.59838867 C-9.30833282 6.86528976 -9.06930237 6.13219086 -8.82302856 5.37687683 C-6.84695735 1.04912629 -4.64830082 0.00698993 0 0 Z M-0.9375 12.4375 C-1.77482743 15.56144391 -2.60667982 18.68681974 -3.4375 21.8125 C-3.67597656 22.70195313 -3.91445312 23.59140625 -4.16015625 24.5078125 C-4.38574219 25.35859375 -4.61132812 26.209375 -4.84375 27.0859375 C-5.05322266 27.87145996 -5.26269531 28.65698242 -5.47851562 29.46630859 C-6.01309321 31.42482829 -6.01309321 31.42482829 -5.9375 33.4375 C-1.9775 33.4375 1.9825 33.4375 6.0625 33.4375 C4.72256673 26.32554649 3.04699429 19.39645997 1.0625 12.4375 C0.4025 12.4375 -0.2575 12.4375 -0.9375 12.4375 Z " transform="translate(1973.9375,627.5625)" style="fill: #A5A5A5;"/><path d="M0 0 C0.98533974 -0.00074776 0.98533974 -0.00074776 1.99058533 -0.00151062 C3.37664827 0.00082637 4.76271574 0.010533 6.14868164 0.02709961 C8.27333359 0.05073664 10.39673397 0.04765317 12.52148438 0.04101562 C22.9356846 0.0841221 22.9356846 0.0841221 25.21484375 2.36328125 C25.46484375 5.36328125 25.46484375 5.36328125 25.21484375 8.36328125 C23.21484375 10.36328125 23.21484375 10.36328125 21.06005859 10.59033203 C20.19074707 10.5798584 19.32143555 10.56938477 18.42578125 10.55859375 C17.48476562 10.55214844 16.54375 10.54570313 15.57421875 10.5390625 C14.589375 10.52230469 13.60453125 10.50554688 12.58984375 10.48828125 C11.59726563 10.47925781 10.6046875 10.47023438 9.58203125 10.4609375 C7.12619987 10.43732374 4.67049201 10.40145195 2.21484375 10.36328125 C2.21484375 14.32328125 2.21484375 18.28328125 2.21484375 22.36328125 C3.41882812 22.34007812 4.6228125 22.316875 5.86328125 22.29296875 C7.4387959 22.27421262 9.01431723 22.25601226 10.58984375 22.23828125 C11.38390625 22.22152344 12.17796875 22.20476563 12.99609375 22.1875 C15.0697639 22.16992652 17.14367616 22.25992957 19.21484375 22.36328125 C21.21484375 24.36328125 21.21484375 24.36328125 21.40234375 27.92578125 C21.21484375 31.36328125 21.21484375 31.36328125 20.21484375 32.36328125 C18.87216962 32.44959999 17.52510053 32.47034598 16.1796875 32.4609375 C15.37080078 32.45771484 14.56191406 32.45449219 13.72851562 32.45117188 C12.87837891 32.44279297 12.02824219 32.43441406 11.15234375 32.42578125 C10.29833984 32.42126953 9.44433594 32.41675781 8.56445312 32.41210938 C6.44788712 32.40028498 4.3313569 32.38234894 2.21484375 32.36328125 C2.21484375 36.98328125 2.21484375 41.60328125 2.21484375 46.36328125 C3.69597656 46.32847656 5.17710937 46.29367187 6.703125 46.2578125 C8.64451993 46.22967634 10.5859271 46.202376 12.52734375 46.17578125 C13.50380859 46.15064453 14.48027344 46.12550781 15.48632812 46.09960938 C16.42412109 46.08994141 17.36191406 46.08027344 18.328125 46.0703125 C19.19219971 46.05460205 20.05627441 46.0388916 20.9465332 46.02270508 C23.70576401 46.43699062 24.57280431 47.14274732 26.21484375 49.36328125 C26.52734375 51.92578125 26.52734375 51.92578125 26.21484375 54.36328125 C22.71247495 57.86565005 17.49672961 56.66724379 12.76171875 56.68554688 C11.64313477 56.68228394 11.64313477 56.68228394 10.50195312 56.67895508 C8.22347285 56.67579322 5.94628854 56.69925642 3.66796875 56.72460938 C2.22526206 56.72688213 0.78255187 56.72758598 -0.66015625 56.7265625 C-2.63628906 56.73103394 -2.63628906 56.73103394 -4.65234375 56.7355957 C-5.68617188 56.61273193 -6.72 56.48986816 -7.78515625 56.36328125 C-9.94385408 53.12523451 -10.04006969 52.21967333 -10.05981445 48.48046875 C-10.06934647 47.48934082 -10.07887848 46.49821289 -10.08869934 45.47705078 C-10.08778793 44.40825684 -10.08687653 43.33946289 -10.0859375 42.23828125 C-10.09022263 41.13983887 -10.09450775 40.04139648 -10.09892273 38.90966797 C-10.1046681 36.58627004 -10.10516478 34.26285412 -10.10083008 31.93945312 C-10.09766869 28.37729359 -10.12113253 24.81596313 -10.14648438 21.25390625 C-10.14875712 18.99869897 -10.14946098 16.74348945 -10.1484375 14.48828125 C-10.15764725 13.4194873 -10.16685699 12.35069336 -10.17634583 11.24951172 C-10.17011703 10.25838379 -10.16388824 9.26725586 -10.1574707 8.24609375 C-10.15810013 7.37355957 -10.15872955 6.50102539 -10.15937805 5.60205078 C-9.19149785 -0.18826047 -5.08049692 -0.01232888 0 0 Z " transform="translate(2540.78515625,627.63671875)" style="fill: #A5A5A5;"/><path d="M0 0 C0.98533974 -0.00074776 0.98533974 -0.00074776 1.99058533 -0.00151062 C3.37664827 0.00082637 4.76271574 0.010533 6.14868164 0.02709961 C8.27333359 0.05073664 10.39673397 0.04765317 12.52148438 0.04101562 C22.9356846 0.0841221 22.9356846 0.0841221 25.21484375 2.36328125 C25.46484375 5.36328125 25.46484375 5.36328125 25.21484375 8.36328125 C23.21484375 10.36328125 23.21484375 10.36328125 21.06005859 10.59033203 C20.19074707 10.5798584 19.32143555 10.56938477 18.42578125 10.55859375 C17.48476562 10.55214844 16.54375 10.54570313 15.57421875 10.5390625 C14.589375 10.52230469 13.60453125 10.50554688 12.58984375 10.48828125 C11.59726563 10.47925781 10.6046875 10.47023438 9.58203125 10.4609375 C7.12619987 10.43732374 4.67049201 10.40145195 2.21484375 10.36328125 C2.21484375 14.32328125 2.21484375 18.28328125 2.21484375 22.36328125 C3.41882812 22.34007812 4.6228125 22.316875 5.86328125 22.29296875 C7.4387959 22.27421262 9.01431723 22.25601226 10.58984375 22.23828125 C11.38390625 22.22152344 12.17796875 22.20476563 12.99609375 22.1875 C15.0697639 22.16992652 17.14367616 22.25992957 19.21484375 22.36328125 C21.21484375 24.36328125 21.21484375 24.36328125 21.40234375 27.92578125 C21.21484375 31.36328125 21.21484375 31.36328125 20.21484375 32.36328125 C18.87216962 32.44959999 17.52510053 32.47034598 16.1796875 32.4609375 C15.37080078 32.45771484 14.56191406 32.45449219 13.72851562 32.45117188 C12.87837891 32.44279297 12.02824219 32.43441406 11.15234375 32.42578125 C10.29833984 32.42126953 9.44433594 32.41675781 8.56445312 32.41210938 C6.44788712 32.40028498 4.3313569 32.38234894 2.21484375 32.36328125 C2.21484375 36.98328125 2.21484375 41.60328125 2.21484375 46.36328125 C3.69597656 46.32847656 5.17710937 46.29367187 6.703125 46.2578125 C8.64451993 46.22967634 10.5859271 46.202376 12.52734375 46.17578125 C13.50380859 46.15064453 14.48027344 46.12550781 15.48632812 46.09960938 C16.42412109 46.08994141 17.36191406 46.08027344 18.328125 46.0703125 C19.19219971 46.05460205 20.05627441 46.0388916 20.9465332 46.02270508 C23.70576401 46.43699062 24.57280431 47.14274732 26.21484375 49.36328125 C26.52734375 51.92578125 26.52734375 51.92578125 26.21484375 54.36328125 C22.71247495 57.86565005 17.49672961 56.66724379 12.76171875 56.68554688 C11.64313477 56.68228394 11.64313477 56.68228394 10.50195312 56.67895508 C8.22347285 56.67579322 5.94628854 56.69925642 3.66796875 56.72460938 C2.22526206 56.72688213 0.78255187 56.72758598 -0.66015625 56.7265625 C-2.63628906 56.73103394 -2.63628906 56.73103394 -4.65234375 56.7355957 C-5.68617188 56.61273193 -6.72 56.48986816 -7.78515625 56.36328125 C-9.94385408 53.12523451 -10.04006969 52.21967333 -10.05981445 48.48046875 C-10.06934647 47.48934082 -10.07887848 46.49821289 -10.08869934 45.47705078 C-10.08778793 44.40825684 -10.08687653 43.33946289 -10.0859375 42.23828125 C-10.09022263 41.13983887 -10.09450775 40.04139648 -10.09892273 38.90966797 C-10.1046681 36.58627004 -10.10516478 34.26285412 -10.10083008 31.93945312 C-10.09766869 28.37729359 -10.12113253 24.81596313 -10.14648438 21.25390625 C-10.14875712 18.99869897 -10.14946098 16.74348945 -10.1484375 14.48828125 C-10.15764725 13.4194873 -10.16685699 12.35069336 -10.17634583 11.24951172 C-10.17011703 10.25838379 -10.16388824 9.26725586 -10.1574707 8.24609375 C-10.15810013 7.37355957 -10.15872955 6.50102539 -10.15937805 5.60205078 C-9.19149785 -0.18826047 -5.08049692 -0.01232888 0 0 Z " transform="translate(2419.78515625,627.63671875)" style="fill: #A5A5A5;"/><path d="M0 0 C2.54890356 1.97884778 3.46884656 3.74185474 4.25854492 6.82885742 C4.45852585 7.5894194 4.65850677 8.34998138 4.86454773 9.1335907 C5.06780167 9.94931046 5.2710556 10.76503021 5.48046875 11.60546875 C5.69818436 12.44467361 5.91589996 13.28387848 6.14021301 14.14851379 C6.83239597 16.82577586 7.51009725 19.50646432 8.1875 22.1875 C8.65464898 24.00480176 9.12273686 25.82186244 9.59179688 27.63867188 C10.73877248 32.08972528 11.87277538 36.54390559 13 41 C15.11840551 37.31104224 16.04295246 33.3693298 17.05859375 29.27734375 C17.44823435 27.75447196 17.83821871 26.23168809 18.22851562 24.70898438 C18.83604015 22.31800997 19.44029237 19.92632484 20.03833008 17.53295898 C20.619257 15.21614728 21.21301952 12.9029266 21.80859375 10.58984375 C21.9836998 9.87416733 22.15880585 9.15849091 22.33921814 8.42112732 C24.00045048 2.02945431 24.00045048 2.02945431 27 0 C32.1074631 -0.63843289 32.1074631 -0.63843289 34.72767639 1.23580933 C36 3 36 3 35.95091248 5.15115356 C35.75498001 5.95994965 35.55904755 6.76874573 35.35717773 7.60205078 C35.14640594 8.49168518 34.93563416 9.38131958 34.71847534 10.2979126 C33.64239738 14.34489449 32.51676378 18.36459714 31.28515625 22.3671875 C31.02874863 23.20919708 30.772341 24.05120667 30.50816345 24.91873169 C29.97027231 26.67901165 29.42984781 28.43851937 28.88696289 30.19726562 C28.05895846 32.88650241 27.24498586 35.57973593 26.43164062 38.2734375 C25.90448997 39.99244659 25.37652408 41.71120594 24.84765625 43.4296875 C24.48656517 44.63128006 24.48656517 44.63128006 24.11817932 45.85714722 C21.83953725 53.15676001 21.83953725 53.15676001 19 56 C16.1875 56.56640625 16.1875 56.56640625 13 56.5625 C11.4221875 56.59537109 11.4221875 56.59537109 9.8125 56.62890625 C7 56 7 56 5.52026367 54.0637207 C3.48008819 49.95224453 2.18465662 45.73922064 0.86328125 41.3515625 C0.57897751 40.42080902 0.29467377 39.49005554 0.00175476 38.53109741 C-0.59578915 36.56702626 -1.18980703 34.60187933 -1.78051758 32.63574219 C-2.68336023 29.63874204 -3.60366588 26.64748908 -4.52539062 23.65625 C-5.10523648 21.74251132 -5.68404703 19.82845858 -6.26171875 17.9140625 C-6.53666672 17.02530426 -6.81161469 16.13654602 -7.09489441 15.22085571 C-8.55735284 10.29384163 -9.30540175 6.13998547 -9 1 C-5.95016004 -0.52491998 -3.3576631 -0.23562548 0 0 Z " transform="translate(2289,628)" style="fill: #A5A5A5;"/><path d="M0 0 C1.04450317 0.00326294 1.04450317 0.00326294 2.11010742 0.0065918 C4.23278268 0.00974873 6.35405999 -0.01369198 8.4765625 -0.0390625 C9.82486803 -0.04133583 11.17317731 -0.04203883 12.52148438 -0.04101562 C14.36407837 -0.04548706 14.36407837 -0.04548706 16.24389648 -0.05004883 C19.30664062 0.32226562 19.30664062 0.32226562 21.24633789 1.6496582 C22.30664062 3.32226562 22.30664062 3.32226562 22.05664062 6.44726562 C21.30664062 9.32226562 21.30664062 9.32226562 20.30664062 10.32226562 C18.74491318 10.40912165 17.17934718 10.42928782 15.61523438 10.41992188 C14.67099609 10.41669922 13.72675781 10.41347656 12.75390625 10.41015625 C11.76068359 10.40177734 10.76746094 10.39339844 9.74414062 10.38476562 C8.74705078 10.38025391 7.74996094 10.37574219 6.72265625 10.37109375 C4.25062576 10.35926585 1.7786259 10.34132978 -0.69335938 10.32226562 C-0.69335938 14.94226563 -0.69335938 19.56226563 -0.69335938 24.32226562 C0.510625 24.2990625 1.71460937 24.27585937 2.95507812 24.25195312 C4.53059277 24.233197 6.10611411 24.21499663 7.68164062 24.19726562 C8.47570313 24.18050781 9.26976563 24.16375 10.08789062 24.14648438 C12.16156078 24.1289109 14.23547304 24.21891395 16.30664062 24.32226562 C18.30664062 26.32226562 18.30664062 26.32226562 18.55664062 29.32226562 C18.30664062 32.32226562 18.30664062 32.32226562 16.30664062 34.32226562 C13.39728483 34.46744306 10.58669462 34.50857358 7.68164062 34.44726562 C6.87984375 34.43824219 6.07804687 34.42921875 5.25195312 34.41992188 C3.2700554 34.39632785 1.28831082 34.36045627 -0.69335938 34.32226562 C-0.68175781 35.58683594 -0.67015625 36.85140625 -0.65820312 38.15429688 C-0.64882372 39.81445165 -0.63972368 41.47460802 -0.63085938 43.13476562 C-0.62248047 43.96814453 -0.61410156 44.80152344 -0.60546875 45.66015625 C-0.60224609 46.46259766 -0.59902344 47.26503906 -0.59570312 48.09179688 C-0.59046631 48.83018799 -0.58522949 49.5685791 -0.57983398 50.3293457 C-0.69335938 52.32226562 -0.69335938 52.32226562 -1.69335938 55.32226562 C-4.70660132 56.8288866 -7.37622314 56.49996935 -10.69335938 56.32226562 C-13.23609659 53.77952841 -12.94600817 52.87787123 -12.95214844 49.35351562 C-12.95845276 48.31904297 -12.96475708 47.28457031 -12.97125244 46.21875 C-12.96720398 45.09791016 -12.96315552 43.97707031 -12.95898438 42.82226562 C-12.96089783 41.67564453 -12.96281128 40.52902344 -12.96478271 39.34765625 C-12.96614559 36.91991965 -12.96244205 34.49217578 -12.95410156 32.06445312 C-12.94340375 28.3377249 -12.95399369 24.61147877 -12.96679688 20.88476562 C-12.9654753 18.53059789 -12.96291295 16.17643045 -12.95898438 13.82226562 C-12.96303284 12.70142578 -12.9670813 11.58058594 -12.97125244 10.42578125 C-12.96494812 9.39130859 -12.9586438 8.35683594 -12.95214844 7.29101562 C-12.95055725 6.37771484 -12.94896606 5.46441406 -12.94732666 4.5234375 C-12.21269401 -1.84373188 -4.8648041 0.02013641 0 0 Z " transform="translate(2064.693359375,627.677734375)" style="fill: #A5A5A5;"/><path d="M0 0 C0.83587646 -0.00095673 1.67175293 -0.00191345 2.53295898 -0.00289917 C4.30159582 -0.00358018 6.07023515 -0.00173141 7.83886719 0.00244141 C10.55148921 0.00779079 13.26394565 0.00249375 15.9765625 -0.00390625 C17.6927087 -0.00324545 19.4088548 -0.00196426 21.125 0 C22.3469104 -0.00303635 22.3469104 -0.00303635 23.59350586 -0.00613403 C29.33258072 0.01785286 29.33258072 0.01785286 31.5625 1.1328125 C32.90258135 5.26472999 32.62075864 6.01629523 30.5625 10.1328125 C25.9425 10.1328125 21.3225 10.1328125 16.5625 10.1328125 C16.57297363 11.41969971 16.58344727 12.70658691 16.59423828 14.0324707 C16.63040544 18.80148544 16.65338854 23.57048802 16.67236328 28.33959961 C16.68242835 30.4047245 16.69608154 32.46983513 16.71337891 34.53491211 C16.73760493 37.50117514 16.74897797 40.46724994 16.7578125 43.43359375 C16.76813507 44.3586824 16.77845764 45.28377106 16.78909302 46.2368927 C16.78924408 47.09755844 16.78939514 47.95822418 16.78955078 48.8449707 C16.793992 49.60219925 16.79843323 50.3594278 16.80300903 51.13960266 C16.5625 53.1328125 16.5625 53.1328125 14.5625 56.1328125 C12.6875 56.49609375 12.6875 56.49609375 10.5625 56.4453125 C9.86125 56.44144531 9.16 56.43757812 8.4375 56.43359375 C6.5625 56.1328125 6.5625 56.1328125 4.5625 54.1328125 C4.32199097 52.22189331 4.32199097 52.22189331 4.33544922 49.86669922 C4.33567581 48.54555618 4.33567581 48.54555618 4.33590698 47.19772339 C4.34622955 46.24559967 4.35655212 45.29347595 4.3671875 44.3125 C4.3700174 43.33870392 4.37284729 42.36490784 4.37576294 41.36160278 C4.38698087 38.24354901 4.4120883 35.12577982 4.4375 32.0078125 C4.44752772 29.89713956 4.45665393 27.78646212 4.46484375 25.67578125 C4.48692542 20.49469415 4.52041871 15.31377365 4.5625 10.1328125 C3.57507812 10.16761719 2.58765625 10.20242188 1.5703125 10.23828125 C0.28898437 10.26535156 -0.99234375 10.29242187 -2.3125 10.3203125 C-3.58867188 10.35511719 -4.86484375 10.38992188 -6.1796875 10.42578125 C-7.25476562 10.32910156 -8.32984375 10.23242188 -9.4375 10.1328125 C-11.4375 7.1328125 -11.4375 7.1328125 -11.1875 4.0078125 C-10.81625 2.5846875 -10.81625 2.5846875 -10.4375 1.1328125 C-7.17636087 -0.49775707 -3.58270683 -0.00890273 0 0 Z " transform="translate(2011.4375,627.8671875)" style="fill: #A5A5A5;"/><path d="M0 0 C1.25472107 0.00607269 1.25472107 0.00607269 2.53479004 0.01226807 C3.39286255 0.01035461 4.25093506 0.00844116 5.13500977 0.00646973 C6.95072726 0.00510763 8.76645449 0.00880579 10.58215332 0.01715088 C13.36736854 0.02785015 16.15193872 0.01725653 18.93713379 0.00445557 C20.69885397 0.00577716 22.46057374 0.00833954 24.22229004 0.01226807 C25.05877075 0.0082196 25.89525146 0.00417114 26.75708008 0 C32.6486217 0.04797473 32.6486217 0.04797473 34.87854004 2.27789307 C35.12854004 5.27789307 35.12854004 5.27789307 34.87854004 8.27789307 C32.87854004 10.27789307 32.87854004 10.27789307 29.83947754 10.47320557 C28.65611816 10.45000244 27.47275879 10.42679932 26.25354004 10.40289307 C25.06502441 10.38484619 23.87650879 10.36679932 22.65197754 10.34820557 C21.73674316 10.32500244 20.82150879 10.30179932 19.87854004 10.27789307 C19.88901367 11.52925049 19.8994873 12.78060791 19.91027832 14.06988525 C19.94648769 18.71406186 19.96944399 23.358226 19.98840332 28.00250244 C19.99845874 30.01228941 20.01210489 32.02206177 20.02941895 34.03179932 C20.05368728 36.92115895 20.06502775 39.81032508 20.07385254 42.69976807 C20.08417511 43.59782166 20.09449768 44.49587524 20.10513306 45.42114258 C20.10528412 46.26171204 20.10543518 47.10228149 20.10559082 47.96832275 C20.11003204 48.7055658 20.11447327 49.44280884 20.11904907 50.20239258 C19.84317377 52.58309033 19.05755436 54.20805738 17.87854004 56.27789307 C11.82385254 56.47320557 11.82385254 56.47320557 9.87854004 56.27789307 C7.87854004 54.27789307 7.87854004 54.27789307 7.63803101 52.36697388 C7.64247223 51.58975983 7.64691345 50.81254578 7.65148926 50.01177979 C7.65171585 48.69063675 7.65171585 48.69063675 7.65194702 47.34280396 C7.66226959 46.39068024 7.67259216 45.43855652 7.68322754 44.45758057 C7.68605743 43.48378448 7.68888733 42.5099884 7.69180298 41.50668335 C7.70302091 38.38862958 7.72812834 35.27086039 7.75354004 32.15289307 C7.76356776 30.04222012 7.77269397 27.93154269 7.78088379 25.82086182 C7.80296546 20.63977472 7.83645874 15.45885422 7.87854004 10.27789307 C6.89111816 10.30109619 5.90369629 10.32429932 4.88635254 10.34820557 C3.60502441 10.36625244 2.32369629 10.38429932 1.00354004 10.40289307 C-0.91071777 10.43769775 -0.91071777 10.43769775 -2.86364746 10.47320557 C-6.12145996 10.27789307 -6.12145996 10.27789307 -8.12145996 8.27789307 C-8.37145996 5.27789307 -8.37145996 5.27789307 -8.12145996 2.27789307 C-5.48960727 -0.35395963 -3.58277127 0.02917445 0 0 Z " transform="translate(1795.1214599609375,627.7221069335938)" style="fill: #A5A5A5;"/><path d="M0 0 C1.25472107 0.00607269 1.25472107 0.00607269 2.53479004 0.01226807 C3.39286255 0.01035461 4.25093506 0.00844116 5.13500977 0.00646973 C6.95072726 0.00510763 8.76645449 0.00880579 10.58215332 0.01715088 C13.36736854 0.02785015 16.15193872 0.01725653 18.93713379 0.00445557 C20.69885397 0.00577716 22.46057374 0.00833954 24.22229004 0.01226807 C25.05877075 0.0082196 25.89525146 0.00417114 26.75708008 0 C32.6486217 0.04797473 32.6486217 0.04797473 34.87854004 2.27789307 C35.12854004 5.27789307 35.12854004 5.27789307 34.87854004 8.27789307 C32.87854004 10.27789307 32.87854004 10.27789307 29.62072754 10.47320557 C28.34455566 10.45000244 27.06838379 10.42679932 25.75354004 10.40289307 C23.83154785 10.37582275 23.83154785 10.37582275 21.87072754 10.34820557 C20.38959473 10.31340088 20.38959473 10.31340088 18.87854004 10.27789307 C18.88298126 10.82468719 18.88742249 11.37148132 18.89199829 11.93484497 C18.9361536 17.6121561 18.96637383 23.28941868 18.98840332 28.96685791 C18.99847755 31.08732076 19.01213737 33.20776967 19.02941895 35.32818604 C19.05360493 38.3713525 19.06500873 41.41433573 19.07385254 44.45758057 C19.08417511 45.40970428 19.09449768 46.361828 19.10513306 47.34280396 C19.10528412 48.22356598 19.10543518 49.104328 19.10559082 50.01177979 C19.11003204 50.78899384 19.11447327 51.56620789 19.11904907 52.36697388 C18.87854004 54.27789307 18.87854004 54.27789307 16.87854004 56.27789307 C10.55595939 56.61660274 10.55595939 56.61660274 7.87854004 55.27789307 C6.92994437 52.51627211 6.75605453 49.9631976 6.76501465 47.06011963 C6.76509018 46.23957092 6.76516571 45.41902222 6.76524353 44.5736084 C6.77040482 43.69742859 6.7755661 42.82124878 6.78088379 41.91851807 C6.78229874 41.01414001 6.78371368 40.10976196 6.78517151 39.17797852 C6.79076093 36.2945828 6.80331151 33.41126524 6.81604004 30.52789307 C6.82105641 28.57086294 6.82561907 26.61383159 6.82971191 24.65679932 C6.84072691 19.86380053 6.8579843 15.07086004 6.87854004 10.27789307 C5.96330566 10.30109619 5.04807129 10.32429932 4.10510254 10.34820557 C2.3223291 10.37527588 2.3223291 10.37527588 0.50354004 10.40289307 C-1.27149902 10.43769775 -1.27149902 10.43769775 -3.08239746 10.47320557 C-6.12145996 10.27789307 -6.12145996 10.27789307 -8.12145996 8.27789307 C-8.37145996 5.27789307 -8.37145996 5.27789307 -8.12145996 2.27789307 C-5.48960727 -0.35395963 -3.58277127 0.02917445 0 0 Z " transform="translate(2659.1214599609375,627.7221069335938)" style="fill: #A5A5A5;"/><path d="M0 0 C3 0.4375 3 0.4375 6 2.4375 C6.36076355 4.34841919 6.36076355 4.34841919 6.34057617 6.70361328 C6.34034958 7.58437531 6.34012299 8.46513733 6.33988953 9.37258911 C6.32440567 10.32471283 6.30892181 11.27683655 6.29296875 12.2578125 C6.28872391 13.23160858 6.28447906 14.20540466 6.28010559 15.20870972 C6.26327786 18.32691805 6.22561811 21.44448617 6.1875 24.5625 C6.17245846 26.67316777 6.15876914 28.78384564 6.14648438 30.89453125 C6.11336109 36.07574023 6.06312151 41.25657439 6 46.4375 C6.88522339 46.41393433 6.88522339 46.41393433 7.78833008 46.38989258 C10.46295586 46.32752061 13.13742864 46.28850343 15.8125 46.25 C17.2056543 46.21229492 17.2056543 46.21229492 18.62695312 46.17382812 C19.51962891 46.16416016 20.41230469 46.15449219 21.33203125 46.14453125 C22.15421143 46.1288208 22.9763916 46.11311035 23.82348633 46.09692383 C26.51849123 46.51863239 27.38324499 47.27550409 29 49.4375 C29.3125 52 29.3125 52 29 54.4375 C27 56.4375 27 56.4375 23.92724609 56.66455078 C22.63898926 56.65407715 21.35073242 56.64360352 20.0234375 56.6328125 C19.33819 56.6299826 18.6529425 56.62715271 17.94692993 56.62423706 C15.75610973 56.61303281 13.56569684 56.58792859 11.375 56.5625 C9.8906309 56.55247048 8.4062554 56.54334458 6.921875 56.53515625 C3.28111739 56.51309294 -0.35940156 56.47856176 -4 56.4375 C-5.74076583 53.41424667 -6.25491025 51.22429755 -6.2746582 47.74829102 C-6.28419022 46.82375626 -6.29372223 45.8992215 -6.30354309 44.94667053 C-6.30263168 43.95493332 -6.30172028 42.96319611 -6.30078125 41.94140625 C-6.30506638 40.9157103 -6.3093515 39.89001434 -6.31376648 38.83323669 C-6.31950583 36.6654433 -6.32001296 34.49763064 -6.31567383 32.32983398 C-6.31251504 29.01577856 -6.33597446 25.70261688 -6.36132812 22.38867188 C-6.36360129 20.28125113 -6.36430454 18.17382798 -6.36328125 16.06640625 C-6.372491 15.07669327 -6.38170074 14.08698029 -6.39118958 13.067276 C-6.30962987 0.92015436 -6.30962987 0.92015436 0 0 Z " transform="translate(1919,627.5625)" style="fill: #A5A5A5;"/><path d="M0 0 C3 0.4375 3 0.4375 6 2.4375 C6.36076355 4.34841919 6.36076355 4.34841919 6.34057617 6.70361328 C6.34034958 7.58437531 6.34012299 8.46513733 6.33988953 9.37258911 C6.32440567 10.32471283 6.30892181 11.27683655 6.29296875 12.2578125 C6.28872391 13.23160858 6.28447906 14.20540466 6.28010559 15.20870972 C6.26327786 18.32691805 6.22561811 21.44448617 6.1875 24.5625 C6.17245846 26.67316777 6.15876914 28.78384564 6.14648438 30.89453125 C6.11336109 36.07574023 6.06312151 41.25657439 6 46.4375 C6.88522339 46.41393433 6.88522339 46.41393433 7.78833008 46.38989258 C10.46295586 46.32752061 13.13742864 46.28850343 15.8125 46.25 C17.2056543 46.21229492 17.2056543 46.21229492 18.62695312 46.17382812 C19.51962891 46.16416016 20.41230469 46.15449219 21.33203125 46.14453125 C22.15421143 46.1288208 22.9763916 46.11311035 23.82348633 46.09692383 C26.51849123 46.51863239 27.38324499 47.27550409 29 49.4375 C29.3125 52 29.3125 52 29 54.4375 C27 56.4375 27 56.4375 23.92724609 56.66455078 C22.63898926 56.65407715 21.35073242 56.64360352 20.0234375 56.6328125 C19.33819 56.6299826 18.6529425 56.62715271 17.94692993 56.62423706 C15.75610973 56.61303281 13.56569684 56.58792859 11.375 56.5625 C9.8906309 56.55247048 8.4062554 56.54334458 6.921875 56.53515625 C3.28111739 56.51309294 -0.35940156 56.47856176 -4 56.4375 C-5.74076583 53.41424667 -6.25491025 51.22429755 -6.2746582 47.74829102 C-6.28419022 46.82375626 -6.29372223 45.8992215 -6.30354309 44.94667053 C-6.30263168 43.95493332 -6.30172028 42.96319611 -6.30078125 41.94140625 C-6.30506638 40.9157103 -6.3093515 39.89001434 -6.31376648 38.83323669 C-6.31950583 36.6654433 -6.32001296 34.49763064 -6.31567383 32.32983398 C-6.31251504 29.01577856 -6.33597446 25.70261688 -6.36132812 22.38867188 C-6.36360129 20.28125113 -6.36430454 18.17382798 -6.36328125 16.06640625 C-6.372491 15.07669327 -6.38170074 14.08698029 -6.39118958 13.067276 C-6.30962987 0.92015436 -6.30962987 0.92015436 0 0 Z " transform="translate(1754,627.5625)" style="fill: #A5A5A5;"/><path d="M0 0 C2.21524235 1.62161744 2.91775276 2.50795862 3.3742218 5.23876953 C3.37359238 6.11130371 3.37296295 6.98383789 3.37231445 7.8828125 C3.37854324 8.87394043 3.38477203 9.86506836 3.39118958 10.88623047 C3.38197983 11.95502441 3.37277008 13.02381836 3.36328125 14.125 C3.36377975 15.22344238 3.36427826 16.32188477 3.36479187 17.45361328 C3.36245037 19.77703662 3.35271748 22.10046245 3.33618164 24.42382812 C3.31259332 27.98590714 3.31561985 31.54723777 3.32226562 35.109375 C3.31668887 37.36458781 3.309579 39.61979746 3.30078125 41.875 C3.30214836 43.47819092 3.30214836 43.47819092 3.30354309 45.11376953 C3.29401108 46.10489746 3.28447906 47.09602539 3.2746582 48.1171875 C3.27005081 48.98972168 3.26544342 49.86225586 3.26069641 50.76123047 C3 53 3 53 1 56 C-1.3828125 56.29296875 -1.3828125 56.29296875 -4.125 56.1875 C-5.49011719 56.14689453 -5.49011719 56.14689453 -6.8828125 56.10546875 C-7.58148437 56.07066406 -8.28015625 56.03585937 -9 56 C-9.07593983 48.5069832 -9.12855332 41.01406529 -9.16479492 33.52075195 C-9.17990005 30.97058402 -9.20038533 28.42044214 -9.22631836 25.87036133 C-9.26262504 22.20908181 -9.27970915 18.54814515 -9.29296875 14.88671875 C-9.30845261 13.7428923 -9.32393646 12.59906586 -9.33988953 11.420578 C-9.34011612 10.35970474 -9.34034271 9.29883148 -9.34057617 8.20581055 C-9.34723801 7.27093307 -9.35389984 6.3360556 -9.36076355 5.37284851 C-9 3 -9 3 -7.66621399 1.19807434 C-5.07912463 -0.66214613 -3.0886845 -0.38608556 0 0 Z " transform="translate(2341,628)" style="fill: #A5A5A5;"/><path d="M0 0 C4.05844386 4.54171948 3.41666119 9.89250378 3.36328125 15.62890625 C3.36377975 16.65555893 3.36427826 17.68221161 3.36479187 18.73997498 C3.36245548 20.90601542 3.35275267 23.07205879 3.33618164 25.23803711 C3.31255969 28.55412034 3.31562792 31.8694007 3.32226562 35.18554688 C3.31668955 37.29167146 3.30958012 39.39779266 3.30078125 41.50390625 C3.30214836 42.99151207 3.30214836 42.99151207 3.30354309 44.50917053 C3.29401108 45.43370529 3.28447906 46.35824005 3.2746582 47.31079102 C3.27005081 48.1217775 3.26544342 48.93276398 3.26069641 49.76832581 C3 52 3 52 1 56 C-2.3 56 -5.6 56 -9 56 C-9.07398079 48.34621312 -9.12852205 40.69263288 -9.16479492 33.03857422 C-9.17991108 30.43306861 -9.20040432 27.82758856 -9.22631836 25.22216797 C-9.26257688 21.48398544 -9.27969798 17.74613835 -9.29296875 14.0078125 C-9.30845261 12.83695099 -9.32393646 11.66608948 -9.33988953 10.45974731 C-9.34011612 9.37877777 -9.34034271 8.29780823 -9.34057617 7.18408203 C-9.34723801 6.22921906 -9.35389984 5.27435608 -9.36076355 4.29055786 C-9.24171158 3.53467377 -9.12265961 2.77878967 -9 2 C-5.52648925 -0.31567384 -4.08600528 -0.59587577 0 0 Z " transform="translate(2640,628)" style="fill: #A5A5A5;"/><path d="M0 0 C4.05844386 4.54171948 3.41666119 9.89250378 3.36328125 15.62890625 C3.36377975 16.65555893 3.36427826 17.68221161 3.36479187 18.73997498 C3.36245548 20.90601542 3.35275267 23.07205879 3.33618164 25.23803711 C3.31255969 28.55412034 3.31562792 31.8694007 3.32226562 35.18554688 C3.31668955 37.29167146 3.30958012 39.39779266 3.30078125 41.50390625 C3.30214836 42.99151207 3.30214836 42.99151207 3.30354309 44.50917053 C3.29401108 45.43370529 3.28447906 46.35824005 3.2746582 47.31079102 C3.27005081 48.1217775 3.26544342 48.93276398 3.26069641 49.76832581 C3 52 3 52 1 56 C-2.3 56 -5.6 56 -9 56 C-9.07398079 48.34621312 -9.12852205 40.69263288 -9.16479492 33.03857422 C-9.17991108 30.43306861 -9.20040432 27.82758856 -9.22631836 25.22216797 C-9.26257688 21.48398544 -9.27969798 17.74613835 -9.29296875 14.0078125 C-9.30845261 12.83695099 -9.32393646 11.66608948 -9.33988953 10.45974731 C-9.34011612 9.37877777 -9.34034271 8.29780823 -9.34057617 7.18408203 C-9.34723801 6.22921906 -9.35389984 5.27435608 -9.36076355 4.29055786 C-9.24171158 3.53467377 -9.12265961 2.77878967 -9 2 C-5.52648925 -0.31567384 -4.08600528 -0.59587577 0 0 Z " transform="translate(1848,628)" style="fill: #A5A5A5;"/></svg>